<svg width="124" height="27" viewBox="0 0 124 27" fill="none" xmlns="http://www.w3.org/2000/svg">
<path fill-rule="evenodd" clip-rule="evenodd" d="M82.2486 21.3717C81.2142 21.3717 80.3263 21.1388 79.5864 20.6714C78.8465 20.204 78.2706 19.5535 77.8619 18.7198C77.4516 17.8861 77.248 16.9162 77.248 15.8085C77.248 14.7009 77.4531 13.7207 77.8619 12.865C78.2721 12.0108 78.864 11.3383 79.6406 10.8489C80.4156 10.361 81.3358 10.1163 82.3995 10.1163C83.1467 10.1163 83.8295 10.2643 84.4478 10.5588C85.0661 10.8533 85.5393 11.2665 85.8705 11.7984V5.0498H88.4799V21.0919H86.0653L85.8939 19.4319C85.5774 20.0355 85.0924 20.5088 84.439 20.8545C83.7841 21.1989 83.0559 21.3717 82.25 21.3717H82.2486ZM82.8317 18.9572C83.45 18.9572 83.9804 18.8253 84.4273 18.5586C84.8727 18.2934 85.2214 17.9125 85.4734 17.4158C85.7254 16.9191 85.8499 16.3565 85.8499 15.7235C85.8499 15.0906 85.7239 14.5118 85.4734 14.0298C85.2214 13.5492 84.8727 13.1668 84.4273 12.887C83.9819 12.6057 83.45 12.4665 82.8317 12.4665C82.2134 12.4665 81.7021 12.6057 81.2581 12.887C80.8127 13.1668 80.4713 13.5522 80.234 14.0401C79.9966 14.5294 79.8779 15.0891 79.8779 15.7221C79.8779 16.355 79.9966 16.9147 80.234 17.4041C80.4713 17.8934 80.8127 18.2729 81.2581 18.5469C81.7035 18.8194 82.2281 18.9572 82.8317 18.9572ZM44.2451 5.97728C45.0217 6.4095 45.6253 7.00875 46.0561 7.77797C46.4883 8.54718 46.7037 9.47756 46.7037 10.4841C46.7037 11.4907 46.4883 12.3859 46.0561 13.1683C45.6253 13.9522 45.0217 14.5631 44.2451 15.0012C43.4686 15.4393 42.5485 15.6591 41.4848 15.6591H38.0138V21.0919H35.2549V5.33114H41.4848C42.5485 5.33114 43.4686 5.54652 44.2451 5.97728ZM40.9046 13.2005C41.8525 13.2005 42.5749 12.9603 43.0701 12.4782H43.0715C43.5682 11.9962 43.8158 11.3251 43.8158 10.4621C43.8158 9.59917 43.5682 8.93838 43.0715 8.47831C42.5763 8.01825 41.8686 7.78822 40.9485 7.78822H38.0153V13.2005H40.9046ZM48.2893 20.4561C48.9427 21.0671 49.8306 21.3718 50.9515 21.3718H50.9529C51.7866 21.3718 52.5295 21.1989 53.1844 20.8546C53.8378 20.5089 54.2803 20.0634 54.5104 19.5169L54.7038 21.0905H57.0114V14.6218C57.0114 13.6314 56.8239 12.8021 56.4502 12.1325C56.0766 11.4629 55.5448 10.9604 54.8547 10.6219C54.166 10.2864 53.3236 10.1164 52.3756 10.1164C51.4276 10.1164 50.5896 10.2732 49.8643 10.5897C49.1376 10.9062 48.5764 11.3486 48.1823 11.9157C47.7867 12.4827 47.5889 13.1552 47.5889 13.9317H49.8306C49.8306 13.372 50.0387 12.9369 50.4562 12.6277C50.8738 12.3186 51.4701 12.1647 52.2467 12.1647C52.6921 12.1647 53.0804 12.2336 53.4115 12.3699C53.7411 12.5061 53.9961 12.7215 54.1763 13.016C54.3565 13.3105 54.4459 13.7017 54.4459 14.1911V14.4284L51.2548 14.6877C49.9903 14.7888 49.016 15.1302 48.3332 15.7119C47.6505 16.295 47.3091 17.0599 47.3091 18.0518C47.3091 19.0437 47.6343 19.8451 48.2893 20.4561ZM53.7441 18.6979C53.262 19.1594 52.6115 19.388 51.7925 19.388V19.3865C51.2181 19.3865 50.7727 19.2635 50.4562 19.0202C50.1398 18.7756 49.9815 18.4166 49.9815 17.9419C49.9815 17.5097 50.1544 17.1609 50.4987 16.8958C50.843 16.6306 51.4262 16.4621 52.2452 16.3888L54.4664 16.2174V16.7785C54.4664 17.599 54.2246 18.2378 53.7441 18.6979ZM64.8117 10.2891C64.6242 10.2744 64.4366 10.2686 64.2506 10.2686C63.4022 10.2686 62.7122 10.4913 62.1803 10.9367C61.7994 11.2561 61.5547 11.6649 61.373 12.1162L61.2118 10.462H58.7313V21.0918H61.3627V15.9168C61.3627 14.8809 61.6353 14.1088 62.1818 13.5989C62.7283 13.089 63.4828 12.8326 64.4454 12.8326H65.4154V10.3961C65.2 10.3389 64.9978 10.3037 64.8117 10.2876V10.2891ZM67.2881 20.4561C67.9415 21.0671 68.8294 21.3718 69.9503 21.3718H69.9517C70.7854 21.3718 71.5283 21.1989 72.1832 20.8546C72.8367 20.5089 73.2791 20.0634 73.5092 19.5169L73.7026 21.0905H76.0102V14.6218C76.0102 13.6314 75.8227 12.8021 75.449 12.1325C75.0754 11.4629 74.5436 10.9604 73.8535 10.6219C73.1649 10.2864 72.3224 10.1164 71.3744 10.1164C70.4265 10.1164 69.5884 10.2732 68.8631 10.5897C68.1364 10.9062 67.5752 11.3486 67.1811 11.9157C66.7855 12.4827 66.5877 13.1552 66.5877 13.9317H68.8294C68.8294 13.372 69.0375 12.9369 69.4551 12.6277C69.8726 12.3186 70.469 12.1647 71.2455 12.1647C71.6909 12.1647 72.0792 12.2336 72.4103 12.3699C72.74 12.5061 72.9949 12.7215 73.1751 13.016C73.3553 13.3105 73.4447 13.7017 73.4447 14.1911V14.4284L70.2536 14.6877C68.9891 14.7888 68.0148 15.1302 67.332 15.7119C66.6493 16.295 66.3079 17.0599 66.3079 18.0518C66.3079 19.0437 66.6331 19.8451 67.2881 20.4561ZM72.7429 18.6979C72.2608 19.1594 71.6103 19.388 70.7913 19.388V19.3865C70.2169 19.3865 69.7715 19.2635 69.4551 19.0202C69.1386 18.7756 68.9803 18.4166 68.9803 17.9419C68.9803 17.5097 69.1532 17.1609 69.4975 16.8958C69.8419 16.6306 70.425 16.4621 71.244 16.3888L73.4652 16.2174V16.7785C73.4652 17.599 73.2235 18.2378 72.7429 18.6979ZM90.5099 7.84245C90.8175 8.1516 91.1956 8.30544 91.641 8.30544C92.0849 8.30544 92.4629 8.1516 92.7721 7.84245C93.0812 7.53477 93.2351 7.15675 93.2351 6.71134C93.2351 6.26593 93.0798 5.89231 92.7721 5.59049C92.4644 5.28867 92.0864 5.13775 91.641 5.13775C91.1956 5.13775 90.819 5.28867 90.5099 5.59049C90.1992 5.89231 90.0454 6.26593 90.0454 6.71134C90.0454 7.15675 90.2007 7.5333 90.5099 7.84245ZM90.3472 10.4402V21.0919H92.9787V10.4402H90.3472ZM103.344 10.4401L103.192 11.9756C102.922 11.4657 102.566 11.0247 102.052 10.7111C101.404 10.3155 100.629 10.1177 99.7236 10.1177C98.717 10.1177 97.8335 10.3551 97.0716 10.8298C96.3097 11.3031 95.7163 11.9477 95.2929 12.7594C94.8695 13.5711 94.657 14.4957 94.657 15.5301C94.657 16.5645 94.8651 17.4861 95.2826 18.2904C95.6988 19.0963 96.2804 19.7278 97.0291 20.1878C97.7764 20.6479 98.6525 20.8779 99.6591 20.8779C100.565 20.8779 101.362 20.6772 102.052 20.2743C102.553 19.9827 102.9 19.593 103.173 19.1578V21.0288C103.173 21.9196 102.903 22.6288 102.364 23.1533C101.825 23.6778 101.102 23.9401 100.197 23.9401C99.3778 23.9401 98.7199 23.7467 98.2232 23.357C97.728 22.9687 97.4364 22.431 97.35 21.7394H94.72C94.8914 23.1621 95.4673 24.283 96.4445 25.1035C97.4218 25.9225 98.6716 26.3327 100.195 26.3327C101.36 26.3327 102.355 26.0983 103.181 25.6324C104.008 25.1665 104.648 24.4969 105.101 23.628C105.553 22.7577 105.779 21.7336 105.779 20.5556V10.4401H103.344ZM102.751 17.0919C102.513 17.5593 102.176 17.9256 101.737 18.1923C101.297 18.4589 100.778 18.5908 100.175 18.5908C99.5712 18.5908 99.0965 18.4545 98.6642 18.1805C98.2335 17.908 97.8994 17.5373 97.6621 17.0714C97.4247 16.604 97.306 16.0692 97.306 15.4656C97.306 14.8619 97.4203 14.3521 97.6503 13.892C97.8804 13.4319 98.2115 13.0686 98.6423 12.8034C99.073 12.5382 99.5829 12.4049 100.173 12.4049C100.764 12.4049 101.319 12.5338 101.757 12.7931C102.195 13.0525 102.529 13.4085 102.759 13.8612C102.989 14.314 103.104 14.8488 103.104 15.4671C103.104 16.0854 102.985 16.6275 102.748 17.0949L102.751 17.0919ZM119.987 10.1177C121.279 10.1177 122.271 10.4811 122.961 11.2064L122.964 11.2078C123.656 11.9331 124 12.9074 124 14.1294V21.0933H121.391V14.818C121.391 14.0576 121.2 13.4788 120.819 13.0832C120.438 12.6876 119.931 12.4898 119.298 12.4898C118.897 12.4898 118.526 12.5836 118.189 12.7712C117.852 12.9587 117.581 13.2385 117.38 13.6122C117.178 13.9858 117.079 14.4678 117.079 15.0568V21.0933H114.449V14.7975C114.449 14.0502 114.261 13.4818 113.887 13.0935C113.512 12.7052 113.017 12.5118 112.399 12.5118C111.981 12.5118 111.6 12.6012 111.256 12.7814C110.91 12.9616 110.638 13.2415 110.437 13.6224C110.235 14.0034 110.135 14.4825 110.135 15.0568V21.0933H107.504V10.4415H109.918L110.142 11.7573C110.372 11.3748 110.679 11.0188 111.126 10.7111C111.7 10.3155 112.419 10.1177 113.282 10.1177C114.216 10.1177 114.982 10.3624 115.578 10.8503C116.032 11.2239 116.346 11.7177 116.588 12.273C116.799 11.7177 117.106 11.2239 117.605 10.8503C118.258 10.3624 119.052 10.1177 119.987 10.1177Z" fill="url(#paint0_linear_3004_1652)"/>
<path d="M20.2703 26.3321H10.1352L0 8.77881H10.1352L15.2009 17.5573L20.2703 26.3357V26.3321Z" fill="url(#paint1_linear_3004_1652)"/>
<path d="M29.049 8.77482C29.049 10.292 28.6551 11.8055 27.871 13.1659L27.1853 14.3548C28.2247 11.7508 26.321 8.77847 23.3815 8.77847H10.1353L5.06958 0H20.2742C23.4106 0 26.3064 1.674 27.8746 4.38741C28.6587 5.74411 29.049 7.26129 29.049 8.77482Z" fill="url(#paint2_linear_3004_1652)"/>
<path d="M27.1849 14.3552L25.3359 17.5573H15.2007L20.2701 8.77881H23.381C26.3206 8.77881 28.2243 11.7512 27.1849 14.3552Z" fill="url(#paint3_linear_3004_1652)"/>
<defs>
<linearGradient id="paint0_linear_3004_1652" x1="35.2549" y1="5.0498" x2="80.0196" y2="61.3203" gradientUnits="userSpaceOnUse">
<stop stop-color="#CEFFFF"/>
<stop offset="1" stop-color="white"/>
</linearGradient>
<linearGradient id="paint1_linear_3004_1652" x1="20.2703" y1="26.3357" x2="8.0636" y2="4.30994" gradientUnits="userSpaceOnUse">
<stop stop-color="#13FDFD"/>
<stop offset="1" stop-color="#139BFD"/>
</linearGradient>
<linearGradient id="paint2_linear_3004_1652" x1="29.049" y1="14.3548" x2="21.186" y2="-6.17318" gradientUnits="userSpaceOnUse">
<stop stop-color="#13FDFD"/>
<stop offset="1" stop-color="#139BFD"/>
</linearGradient>
<linearGradient id="paint3_linear_3004_1652" x1="27.4717" y1="17.5573" x2="22.0239" y2="5.65557" gradientUnits="userSpaceOnUse">
<stop stop-color="#13FDFD"/>
<stop offset="1" stop-color="#139BFD"/>
</linearGradient>
</defs>
</svg>
