<svg width="1222" height="153" viewBox="0 0 1222 153" fill="none" xmlns="http://www.w3.org/2000/svg">
<mask id="path-1-outside-1_1470_5322" maskUnits="userSpaceOnUse" x="-3" y="-2" width="1227" height="157" fill="black">
<rect fill="white" x="-3" y="-2" width="1227" height="157"/>
<path d="M33.9256 115L0.312807 2.28919H20.8197L38.7054 61.8054C39.6305 64.8892 40.5043 68.1785 41.3266 71.6734C42.1489 75.0655 42.9713 79.2286 43.7936 84.1626C44.7187 79.1258 45.5924 74.9627 46.4148 71.6734C47.3399 68.2813 48.265 64.992 49.1901 61.8054L67.0758 2.28919H88.8162L106.239 61.8054C107.165 64.992 108.038 68.3327 108.861 71.8276C109.786 75.3225 110.711 79.4342 111.636 84.1626C112.664 78.9202 113.589 74.6544 114.411 71.365C115.336 67.9729 116.21 64.8892 117.032 62.1138L135.227 2.28919H155.271L121.041 115H101.922L77.8689 32.9724L53.199 115H33.9256ZM190.405 117.004C182.901 117.004 176.22 115.308 170.361 111.916C164.604 108.421 160.082 103.693 156.792 97.731C153.503 91.6663 151.858 84.7279 151.858 76.9158C151.858 69.0008 153.452 62.011 156.638 55.9463C159.825 49.8816 164.296 45.1532 170.052 41.7611C175.809 38.2662 182.387 36.5187 189.788 36.5187C197.498 36.5187 204.128 38.1634 209.678 41.4527C215.229 44.6393 219.495 49.1107 222.476 54.867C225.56 60.6233 227.102 67.5104 227.102 75.5281V81.233L161.726 81.3872L162.035 69.3606H208.445C208.445 64.1182 206.749 59.9038 203.357 56.7173C200.067 53.5307 195.596 51.9375 189.943 51.9375C185.522 51.9375 181.771 52.8626 178.687 54.7128C175.706 56.5631 173.445 59.3384 171.903 63.0389C170.361 66.7394 169.59 71.2622 169.59 76.6074C169.59 84.8307 171.337 91.0496 174.832 95.264C178.43 99.4785 183.724 101.586 190.713 101.586C195.853 101.586 200.067 100.609 203.357 98.6562C206.749 96.7031 208.959 93.9278 209.987 90.3301H227.41C225.765 98.6562 221.654 105.183 215.075 109.912C208.599 114.64 200.376 117.004 190.405 117.004ZM306.38 117.004C298.363 117.004 291.99 114.846 287.261 110.529C282.635 106.109 280.323 100.352 280.323 93.2596C280.323 86.2698 282.738 80.7191 287.569 76.6074C292.503 72.3929 299.493 69.926 308.539 69.2064L331.359 67.3562V65.6601C331.359 62.1652 330.69 59.3898 329.354 57.334C328.121 55.1754 326.322 53.6335 323.958 52.7084C321.593 51.6805 318.818 51.1665 315.632 51.1665C310.081 51.1665 305.815 52.2972 302.834 54.5586C299.853 56.7173 298.363 59.801 298.363 63.8099H282.327C282.327 58.2591 283.715 53.4793 286.49 49.4705C289.368 45.3588 293.377 42.1723 298.517 39.9109C303.759 37.6494 309.772 36.5187 316.557 36.5187C323.444 36.5187 329.354 37.7522 334.288 40.2192C339.222 42.5834 343.025 46.1811 345.698 51.0123C348.371 55.7407 349.707 61.6512 349.707 68.7439V115H333.209L331.821 103.744C330.177 107.65 326.99 110.837 322.262 113.304C317.636 115.771 312.342 117.004 306.38 117.004ZM312.394 102.819C318.253 102.819 322.878 101.175 326.27 97.8852C329.765 94.5959 331.513 90.0217 331.513 84.1626V80.1537L315.632 81.3872C309.772 81.9012 305.609 83.1347 303.142 85.0877C300.675 86.9379 299.442 89.4049 299.442 92.4887C299.442 95.8808 300.573 98.4506 302.834 100.198C305.095 101.945 308.282 102.819 312.394 102.819ZM415.984 38.5232V55.9463H409.046C402.159 55.9463 396.762 57.7966 392.856 61.4971C388.95 65.0948 386.997 70.5941 386.997 77.9951V115H368.186V38.9857H385.918L387.46 54.7128H385.61C386.638 49.676 389.053 45.5644 392.856 42.3779C396.66 39.1913 401.594 37.598 407.658 37.598C408.995 37.598 410.331 37.6494 411.667 37.7522C413.004 37.855 414.443 38.112 415.984 38.5232ZM460.233 117.004C452.729 117.004 446.047 115.308 440.188 111.916C434.432 108.421 429.909 103.693 426.62 97.731C423.33 91.6663 421.686 84.7279 421.686 76.9158C421.686 69.0008 423.279 62.011 426.466 55.9463C429.652 49.8816 434.124 45.1532 439.88 41.7611C445.636 38.2662 452.215 36.5187 459.616 36.5187C467.325 36.5187 473.955 38.1634 479.506 41.4527C485.057 44.6393 489.323 49.1107 492.304 54.867C495.387 60.6233 496.929 67.5104 496.929 75.5281V81.233L431.554 81.3872L431.862 69.3606H478.273C478.273 64.1182 476.576 59.9038 473.184 56.7173C469.895 53.5307 465.424 51.9375 459.77 51.9375C455.35 51.9375 451.598 52.8626 448.514 54.7128C445.533 56.5631 443.272 59.3384 441.73 63.0389C440.188 66.7394 439.417 71.2622 439.417 76.6074C439.417 84.8307 441.165 91.0496 444.66 95.264C448.257 99.4785 453.551 101.586 460.541 101.586C465.681 101.586 469.895 100.609 473.184 98.6562C476.576 96.7031 478.786 93.9278 479.814 90.3301H497.238C495.593 98.6562 491.481 105.183 484.903 109.912C478.427 114.64 470.203 117.004 460.233 117.004ZM576.054 2.28919V115H556.318V2.28919H576.054ZM600.878 76.1448H571.274V58.5675H596.715C603.499 58.5675 608.639 56.8714 612.133 53.4793C615.731 49.9844 617.53 45.1532 617.53 38.9857C617.53 32.8182 615.731 28.0898 612.133 24.8005C608.639 21.5112 603.602 19.8665 597.023 19.8665H569.424V2.28919H600.878C608.484 2.28919 615.063 3.83106 620.614 6.9148C626.164 9.99855 630.482 14.3158 633.565 19.8665C636.649 25.3145 638.191 31.7389 638.191 39.1399C638.191 46.3353 636.649 52.7598 633.565 58.4133C630.482 63.9641 626.164 68.3327 620.614 71.5192C615.063 74.603 608.484 76.1448 600.878 76.1448ZM671.671 117.004C663.654 117.004 657.281 114.846 652.552 110.529C647.927 106.109 645.614 100.352 645.614 93.2596C645.614 86.2698 648.029 80.7191 652.861 76.6074C657.795 72.3929 664.784 69.926 673.83 69.2064L696.65 67.3562V65.6601C696.65 62.1652 695.982 59.3898 694.645 57.334C693.412 55.1754 691.613 53.6335 689.249 52.7084C686.884 51.6805 684.109 51.1665 680.923 51.1665C675.372 51.1665 671.106 52.2972 668.125 54.5586C665.144 56.7173 663.654 59.801 663.654 63.8099H647.618C647.618 58.2591 649.006 53.4793 651.781 49.4705C654.659 45.3588 658.668 42.1723 663.808 39.9109C669.05 37.6494 675.063 36.5187 681.848 36.5187C688.735 36.5187 694.645 37.7522 699.579 40.2192C704.513 42.5834 708.317 46.1811 710.989 51.0123C713.662 55.7407 714.998 61.6512 714.998 68.7439V115H698.5L697.112 103.744C695.468 107.65 692.281 110.837 687.553 113.304C682.927 115.771 677.633 117.004 671.671 117.004ZM677.685 102.819C683.544 102.819 688.169 101.175 691.561 97.8852C695.056 94.5959 696.804 90.0217 696.804 84.1626V80.1537L680.923 81.3872C675.063 81.9012 670.9 83.1347 668.433 85.0877C665.966 86.9379 664.733 89.4049 664.733 92.4887C664.733 95.8808 665.864 98.4506 668.125 100.198C670.386 101.945 673.573 102.819 677.685 102.819ZM781.276 38.5232V55.9463H774.337C767.45 55.9463 762.054 57.7966 758.147 61.4971C754.241 65.0948 752.288 70.5941 752.288 77.9951V115H733.478V38.9857H751.209L752.751 54.7128H750.901C751.929 49.676 754.344 45.5644 758.147 42.3779C761.951 39.1913 766.885 37.598 772.949 37.598C774.286 37.598 775.622 37.6494 776.958 37.7522C778.295 37.855 779.734 38.112 781.276 38.5232ZM813.662 117.004C805.644 117.004 799.271 114.846 794.543 110.529C789.917 106.109 787.604 100.352 787.604 93.2596C787.604 86.2698 790.02 80.7191 794.851 76.6074C799.785 72.3929 806.775 69.926 815.821 69.2064L838.64 67.3562V65.6601C838.64 62.1652 837.972 59.3898 836.636 57.334C835.402 55.1754 833.604 53.6335 831.239 52.7084C828.875 51.6805 826.1 51.1665 822.913 51.1665C817.363 51.1665 813.097 52.2972 810.116 54.5586C807.135 56.7173 805.644 59.801 805.644 63.8099H789.609C789.609 58.2591 790.997 53.4793 793.772 49.4705C796.65 45.3588 800.659 42.1723 805.799 39.9109C811.041 37.6494 817.054 36.5187 823.838 36.5187C830.725 36.5187 836.636 37.7522 841.57 40.2192C846.504 42.5834 850.307 46.1811 852.98 51.0123C855.652 55.7407 856.989 61.6512 856.989 68.7439V115H840.491L839.103 103.744C837.458 107.65 834.272 110.837 829.543 113.304C824.918 115.771 819.624 117.004 813.662 117.004ZM819.675 102.819C825.534 102.819 830.16 101.175 833.552 97.8852C837.047 94.5959 838.795 90.0217 838.795 84.1626V80.1537L822.913 81.3872C817.054 81.9012 812.891 83.1347 810.424 85.0877C807.957 86.9379 806.724 89.4049 806.724 92.4887C806.724 95.8808 807.854 98.4506 810.116 100.198C812.377 101.945 815.564 102.819 819.675 102.819ZM906.768 117.004C899.367 117.004 892.994 115.36 887.649 112.07C882.407 108.678 878.295 104.001 875.314 98.0394C872.436 92.0775 870.997 85.1391 870.997 77.2241C870.997 69.3092 872.436 62.3194 875.314 56.2547C878.295 50.0872 882.561 45.256 888.112 41.7611C893.662 38.2662 900.241 36.5187 907.848 36.5187C913.193 36.5187 918.075 37.598 922.495 39.7567C926.915 41.8125 930.307 44.7421 932.672 48.5453V0.284758H951.328V115H934.059L932.826 103.128C930.564 107.445 927.07 110.837 922.341 113.304C917.716 115.771 912.525 117.004 906.768 117.004ZM910.931 99.7355C915.351 99.7355 919.155 98.8103 922.341 96.9601C925.528 95.0071 927.995 92.2831 929.742 88.7882C931.592 85.1905 932.517 81.1302 932.517 76.6074C932.517 71.9818 931.592 67.9729 929.742 64.5808C927.995 61.0859 925.528 58.3619 922.341 56.4089C919.155 54.3531 915.351 53.3251 910.931 53.3251C906.614 53.3251 902.862 54.3531 899.676 56.4089C896.489 58.3619 894.022 61.0859 892.275 64.5808C890.63 68.0757 889.808 72.0846 889.808 76.6074C889.808 81.1302 890.63 85.1391 892.275 88.634C894.022 92.1289 896.489 94.8529 899.676 96.8059C902.862 98.759 906.614 99.7355 910.931 99.7355ZM970.932 115V38.8315H989.743V115H970.932ZM980.183 23.567C976.996 23.567 974.272 22.4877 972.011 20.3291C969.852 18.0677 968.773 15.3437 968.773 12.1572C968.773 8.97063 969.852 6.29806 972.011 4.13943C974.272 1.98082 976.996 0.901508 980.183 0.901508C983.37 0.901508 986.042 1.98082 988.201 4.13943C990.462 6.29806 991.593 8.97063 991.593 12.1572C991.593 15.3437 990.462 18.0677 988.201 20.3291C986.042 22.4877 983.37 23.567 980.183 23.567ZM1004.86 75.2197C1004.86 67.8187 1006.35 61.2401 1009.33 55.4838C1012.42 49.6246 1016.68 44.999 1022.13 41.6069C1027.58 38.2148 1033.9 36.5187 1041.09 36.5187C1047.57 36.5187 1053.12 37.9578 1057.75 40.836C1062.37 43.6113 1065.61 47.5174 1067.46 52.5542L1065.46 54.2503L1067 38.8315H1084.42V111.145C1084.42 119.574 1082.78 126.872 1079.49 133.04C1076.3 139.31 1071.73 144.09 1065.76 147.379C1059.9 150.771 1052.81 152.467 1044.49 152.467C1033.59 152.467 1024.65 149.538 1017.66 143.679C1010.67 137.82 1006.56 129.802 1005.32 119.626H1024.13C1024.75 124.56 1026.81 128.414 1030.3 131.19C1033.9 133.965 1038.63 135.353 1044.49 135.353C1050.96 135.353 1056.1 133.451 1059.9 129.648C1063.81 125.947 1065.76 120.911 1065.76 114.537V95.5724L1067.92 97.5769C1066.07 102.408 1062.68 106.263 1057.75 109.141C1052.81 112.019 1047.11 113.458 1040.63 113.458C1033.44 113.458 1027.17 111.813 1021.82 108.524C1016.48 105.235 1012.31 100.712 1009.33 94.9557C1006.35 89.1993 1004.86 82.6207 1004.86 75.2197ZM1023.83 74.7572C1023.83 79.0744 1024.65 82.9291 1026.29 86.3212C1028.04 89.6105 1030.46 92.2317 1033.54 94.1847C1036.62 96.1378 1040.22 97.1143 1044.33 97.1143C1048.65 97.1143 1052.35 96.1892 1055.43 94.3389C1058.62 92.3859 1061.04 89.7647 1062.68 86.4754C1064.43 83.0833 1065.3 79.1772 1065.3 74.7572C1065.3 70.3371 1064.48 66.5338 1062.83 63.3473C1061.19 60.058 1058.77 57.4882 1055.59 55.6379C1052.5 53.7877 1048.75 52.8626 1044.33 52.8626C1040.12 52.8626 1036.47 53.8391 1033.38 55.7921C1030.3 57.6424 1027.94 60.2122 1026.29 63.5015C1024.65 66.7908 1023.83 70.5427 1023.83 74.7572ZM1122.7 115H1103.89V38.8315H1121.16L1123.47 52.4L1121.31 50.5498C1122.85 46.8493 1125.68 43.6113 1129.79 40.836C1133.9 37.9578 1139.04 36.5187 1145.21 36.5187C1151.89 36.5187 1157.34 38.2662 1161.55 41.7611C1165.87 45.256 1168.85 49.8816 1170.5 55.6379H1167.41C1168.54 49.8816 1171.42 45.256 1176.05 41.7611C1180.78 38.2662 1186.48 36.5187 1193.16 36.5187C1202.41 36.5187 1209.51 39.1399 1214.44 44.3823C1219.37 49.5219 1221.84 56.4603 1221.84 65.1975V115H1203.18V70.1315C1203.18 64.6836 1201.8 60.5719 1199.02 57.7966C1196.35 54.9184 1192.75 53.4793 1188.23 53.4793C1185.35 53.4793 1182.68 54.1475 1180.21 55.4838C1177.85 56.82 1175.94 58.8245 1174.51 61.4971C1173.07 64.1696 1172.35 67.6131 1172.35 71.8276V115H1153.54V69.9773C1153.54 64.6322 1152.2 60.5719 1149.53 57.7966C1146.85 55.0212 1143.31 53.6335 1138.89 53.6335C1135.91 53.6335 1133.18 54.3017 1130.72 55.6379C1128.25 56.8714 1126.3 58.8759 1124.86 61.6512C1123.42 64.3238 1122.7 67.7159 1122.7 71.8276V115Z"/>
</mask>
<path d="M33.9256 115L0.312807 2.28919H20.8197L38.7054 61.8054C39.6305 64.8892 40.5043 68.1785 41.3266 71.6734C42.1489 75.0655 42.9713 79.2286 43.7936 84.1626C44.7187 79.1258 45.5924 74.9627 46.4148 71.6734C47.3399 68.2813 48.265 64.992 49.1901 61.8054L67.0758 2.28919H88.8162L106.239 61.8054C107.165 64.992 108.038 68.3327 108.861 71.8276C109.786 75.3225 110.711 79.4342 111.636 84.1626C112.664 78.9202 113.589 74.6544 114.411 71.365C115.336 67.9729 116.21 64.8892 117.032 62.1138L135.227 2.28919H155.271L121.041 115H101.922L77.8689 32.9724L53.199 115H33.9256ZM190.405 117.004C182.901 117.004 176.22 115.308 170.361 111.916C164.604 108.421 160.082 103.693 156.792 97.731C153.503 91.6663 151.858 84.7279 151.858 76.9158C151.858 69.0008 153.452 62.011 156.638 55.9463C159.825 49.8816 164.296 45.1532 170.052 41.7611C175.809 38.2662 182.387 36.5187 189.788 36.5187C197.498 36.5187 204.128 38.1634 209.678 41.4527C215.229 44.6393 219.495 49.1107 222.476 54.867C225.56 60.6233 227.102 67.5104 227.102 75.5281V81.233L161.726 81.3872L162.035 69.3606H208.445C208.445 64.1182 206.749 59.9038 203.357 56.7173C200.067 53.5307 195.596 51.9375 189.943 51.9375C185.522 51.9375 181.771 52.8626 178.687 54.7128C175.706 56.5631 173.445 59.3384 171.903 63.0389C170.361 66.7394 169.59 71.2622 169.59 76.6074C169.59 84.8307 171.337 91.0496 174.832 95.264C178.43 99.4785 183.724 101.586 190.713 101.586C195.853 101.586 200.067 100.609 203.357 98.6562C206.749 96.7031 208.959 93.9278 209.987 90.3301H227.41C225.765 98.6562 221.654 105.183 215.075 109.912C208.599 114.64 200.376 117.004 190.405 117.004ZM306.38 117.004C298.363 117.004 291.99 114.846 287.261 110.529C282.635 106.109 280.323 100.352 280.323 93.2596C280.323 86.2698 282.738 80.7191 287.569 76.6074C292.503 72.3929 299.493 69.926 308.539 69.2064L331.359 67.3562V65.6601C331.359 62.1652 330.69 59.3898 329.354 57.334C328.121 55.1754 326.322 53.6335 323.958 52.7084C321.593 51.6805 318.818 51.1665 315.632 51.1665C310.081 51.1665 305.815 52.2972 302.834 54.5586C299.853 56.7173 298.363 59.801 298.363 63.8099H282.327C282.327 58.2591 283.715 53.4793 286.49 49.4705C289.368 45.3588 293.377 42.1723 298.517 39.9109C303.759 37.6494 309.772 36.5187 316.557 36.5187C323.444 36.5187 329.354 37.7522 334.288 40.2192C339.222 42.5834 343.025 46.1811 345.698 51.0123C348.371 55.7407 349.707 61.6512 349.707 68.7439V115H333.209L331.821 103.744C330.177 107.65 326.99 110.837 322.262 113.304C317.636 115.771 312.342 117.004 306.38 117.004ZM312.394 102.819C318.253 102.819 322.878 101.175 326.27 97.8852C329.765 94.5959 331.513 90.0217 331.513 84.1626V80.1537L315.632 81.3872C309.772 81.9012 305.609 83.1347 303.142 85.0877C300.675 86.9379 299.442 89.4049 299.442 92.4887C299.442 95.8808 300.573 98.4506 302.834 100.198C305.095 101.945 308.282 102.819 312.394 102.819ZM415.984 38.5232V55.9463H409.046C402.159 55.9463 396.762 57.7966 392.856 61.4971C388.95 65.0948 386.997 70.5941 386.997 77.9951V115H368.186V38.9857H385.918L387.46 54.7128H385.61C386.638 49.676 389.053 45.5644 392.856 42.3779C396.66 39.1913 401.594 37.598 407.658 37.598C408.995 37.598 410.331 37.6494 411.667 37.7522C413.004 37.855 414.443 38.112 415.984 38.5232ZM460.233 117.004C452.729 117.004 446.047 115.308 440.188 111.916C434.432 108.421 429.909 103.693 426.62 97.731C423.33 91.6663 421.686 84.7279 421.686 76.9158C421.686 69.0008 423.279 62.011 426.466 55.9463C429.652 49.8816 434.124 45.1532 439.88 41.7611C445.636 38.2662 452.215 36.5187 459.616 36.5187C467.325 36.5187 473.955 38.1634 479.506 41.4527C485.057 44.6393 489.323 49.1107 492.304 54.867C495.387 60.6233 496.929 67.5104 496.929 75.5281V81.233L431.554 81.3872L431.862 69.3606H478.273C478.273 64.1182 476.576 59.9038 473.184 56.7173C469.895 53.5307 465.424 51.9375 459.77 51.9375C455.35 51.9375 451.598 52.8626 448.514 54.7128C445.533 56.5631 443.272 59.3384 441.73 63.0389C440.188 66.7394 439.417 71.2622 439.417 76.6074C439.417 84.8307 441.165 91.0496 444.66 95.264C448.257 99.4785 453.551 101.586 460.541 101.586C465.681 101.586 469.895 100.609 473.184 98.6562C476.576 96.7031 478.786 93.9278 479.814 90.3301H497.238C495.593 98.6562 491.481 105.183 484.903 109.912C478.427 114.64 470.203 117.004 460.233 117.004ZM576.054 2.28919V115H556.318V2.28919H576.054ZM600.878 76.1448H571.274V58.5675H596.715C603.499 58.5675 608.639 56.8714 612.133 53.4793C615.731 49.9844 617.53 45.1532 617.53 38.9857C617.53 32.8182 615.731 28.0898 612.133 24.8005C608.639 21.5112 603.602 19.8665 597.023 19.8665H569.424V2.28919H600.878C608.484 2.28919 615.063 3.83106 620.614 6.9148C626.164 9.99855 630.482 14.3158 633.565 19.8665C636.649 25.3145 638.191 31.7389 638.191 39.1399C638.191 46.3353 636.649 52.7598 633.565 58.4133C630.482 63.9641 626.164 68.3327 620.614 71.5192C615.063 74.603 608.484 76.1448 600.878 76.1448ZM671.671 117.004C663.654 117.004 657.281 114.846 652.552 110.529C647.927 106.109 645.614 100.352 645.614 93.2596C645.614 86.2698 648.029 80.7191 652.861 76.6074C657.795 72.3929 664.784 69.926 673.83 69.2064L696.65 67.3562V65.6601C696.65 62.1652 695.982 59.3898 694.645 57.334C693.412 55.1754 691.613 53.6335 689.249 52.7084C686.884 51.6805 684.109 51.1665 680.923 51.1665C675.372 51.1665 671.106 52.2972 668.125 54.5586C665.144 56.7173 663.654 59.801 663.654 63.8099H647.618C647.618 58.2591 649.006 53.4793 651.781 49.4705C654.659 45.3588 658.668 42.1723 663.808 39.9109C669.05 37.6494 675.063 36.5187 681.848 36.5187C688.735 36.5187 694.645 37.7522 699.579 40.2192C704.513 42.5834 708.317 46.1811 710.989 51.0123C713.662 55.7407 714.998 61.6512 714.998 68.7439V115H698.5L697.112 103.744C695.468 107.65 692.281 110.837 687.553 113.304C682.927 115.771 677.633 117.004 671.671 117.004ZM677.685 102.819C683.544 102.819 688.169 101.175 691.561 97.8852C695.056 94.5959 696.804 90.0217 696.804 84.1626V80.1537L680.923 81.3872C675.063 81.9012 670.9 83.1347 668.433 85.0877C665.966 86.9379 664.733 89.4049 664.733 92.4887C664.733 95.8808 665.864 98.4506 668.125 100.198C670.386 101.945 673.573 102.819 677.685 102.819ZM781.276 38.5232V55.9463H774.337C767.45 55.9463 762.054 57.7966 758.147 61.4971C754.241 65.0948 752.288 70.5941 752.288 77.9951V115H733.478V38.9857H751.209L752.751 54.7128H750.901C751.929 49.676 754.344 45.5644 758.147 42.3779C761.951 39.1913 766.885 37.598 772.949 37.598C774.286 37.598 775.622 37.6494 776.958 37.7522C778.295 37.855 779.734 38.112 781.276 38.5232ZM813.662 117.004C805.644 117.004 799.271 114.846 794.543 110.529C789.917 106.109 787.604 100.352 787.604 93.2596C787.604 86.2698 790.02 80.7191 794.851 76.6074C799.785 72.3929 806.775 69.926 815.821 69.2064L838.64 67.3562V65.6601C838.64 62.1652 837.972 59.3898 836.636 57.334C835.402 55.1754 833.604 53.6335 831.239 52.7084C828.875 51.6805 826.1 51.1665 822.913 51.1665C817.363 51.1665 813.097 52.2972 810.116 54.5586C807.135 56.7173 805.644 59.801 805.644 63.8099H789.609C789.609 58.2591 790.997 53.4793 793.772 49.4705C796.65 45.3588 800.659 42.1723 805.799 39.9109C811.041 37.6494 817.054 36.5187 823.838 36.5187C830.725 36.5187 836.636 37.7522 841.57 40.2192C846.504 42.5834 850.307 46.1811 852.98 51.0123C855.652 55.7407 856.989 61.6512 856.989 68.7439V115H840.491L839.103 103.744C837.458 107.65 834.272 110.837 829.543 113.304C824.918 115.771 819.624 117.004 813.662 117.004ZM819.675 102.819C825.534 102.819 830.16 101.175 833.552 97.8852C837.047 94.5959 838.795 90.0217 838.795 84.1626V80.1537L822.913 81.3872C817.054 81.9012 812.891 83.1347 810.424 85.0877C807.957 86.9379 806.724 89.4049 806.724 92.4887C806.724 95.8808 807.854 98.4506 810.116 100.198C812.377 101.945 815.564 102.819 819.675 102.819ZM906.768 117.004C899.367 117.004 892.994 115.36 887.649 112.07C882.407 108.678 878.295 104.001 875.314 98.0394C872.436 92.0775 870.997 85.1391 870.997 77.2241C870.997 69.3092 872.436 62.3194 875.314 56.2547C878.295 50.0872 882.561 45.256 888.112 41.7611C893.662 38.2662 900.241 36.5187 907.848 36.5187C913.193 36.5187 918.075 37.598 922.495 39.7567C926.915 41.8125 930.307 44.7421 932.672 48.5453V0.284758H951.328V115H934.059L932.826 103.128C930.564 107.445 927.07 110.837 922.341 113.304C917.716 115.771 912.525 117.004 906.768 117.004ZM910.931 99.7355C915.351 99.7355 919.155 98.8103 922.341 96.9601C925.528 95.0071 927.995 92.2831 929.742 88.7882C931.592 85.1905 932.517 81.1302 932.517 76.6074C932.517 71.9818 931.592 67.9729 929.742 64.5808C927.995 61.0859 925.528 58.3619 922.341 56.4089C919.155 54.3531 915.351 53.3251 910.931 53.3251C906.614 53.3251 902.862 54.3531 899.676 56.4089C896.489 58.3619 894.022 61.0859 892.275 64.5808C890.63 68.0757 889.808 72.0846 889.808 76.6074C889.808 81.1302 890.63 85.1391 892.275 88.634C894.022 92.1289 896.489 94.8529 899.676 96.8059C902.862 98.759 906.614 99.7355 910.931 99.7355ZM970.932 115V38.8315H989.743V115H970.932ZM980.183 23.567C976.996 23.567 974.272 22.4877 972.011 20.3291C969.852 18.0677 968.773 15.3437 968.773 12.1572C968.773 8.97063 969.852 6.29806 972.011 4.13943C974.272 1.98082 976.996 0.901508 980.183 0.901508C983.37 0.901508 986.042 1.98082 988.201 4.13943C990.462 6.29806 991.593 8.97063 991.593 12.1572C991.593 15.3437 990.462 18.0677 988.201 20.3291C986.042 22.4877 983.37 23.567 980.183 23.567ZM1004.86 75.2197C1004.86 67.8187 1006.35 61.2401 1009.33 55.4838C1012.42 49.6246 1016.68 44.999 1022.13 41.6069C1027.58 38.2148 1033.9 36.5187 1041.09 36.5187C1047.57 36.5187 1053.12 37.9578 1057.75 40.836C1062.37 43.6113 1065.61 47.5174 1067.46 52.5542L1065.46 54.2503L1067 38.8315H1084.42V111.145C1084.42 119.574 1082.78 126.872 1079.49 133.04C1076.3 139.31 1071.73 144.09 1065.76 147.379C1059.9 150.771 1052.81 152.467 1044.49 152.467C1033.59 152.467 1024.65 149.538 1017.66 143.679C1010.67 137.82 1006.56 129.802 1005.32 119.626H1024.13C1024.75 124.56 1026.81 128.414 1030.3 131.19C1033.9 133.965 1038.63 135.353 1044.49 135.353C1050.96 135.353 1056.1 133.451 1059.9 129.648C1063.81 125.947 1065.76 120.911 1065.76 114.537V95.5724L1067.92 97.5769C1066.07 102.408 1062.68 106.263 1057.75 109.141C1052.81 112.019 1047.11 113.458 1040.63 113.458C1033.44 113.458 1027.17 111.813 1021.82 108.524C1016.48 105.235 1012.31 100.712 1009.33 94.9557C1006.35 89.1993 1004.86 82.6207 1004.86 75.2197ZM1023.83 74.7572C1023.83 79.0744 1024.65 82.9291 1026.29 86.3212C1028.04 89.6105 1030.46 92.2317 1033.54 94.1847C1036.62 96.1378 1040.22 97.1143 1044.33 97.1143C1048.65 97.1143 1052.35 96.1892 1055.43 94.3389C1058.62 92.3859 1061.04 89.7647 1062.68 86.4754C1064.43 83.0833 1065.3 79.1772 1065.3 74.7572C1065.3 70.3371 1064.48 66.5338 1062.83 63.3473C1061.19 60.058 1058.77 57.4882 1055.59 55.6379C1052.5 53.7877 1048.75 52.8626 1044.33 52.8626C1040.12 52.8626 1036.47 53.8391 1033.38 55.7921C1030.3 57.6424 1027.94 60.2122 1026.29 63.5015C1024.65 66.7908 1023.83 70.5427 1023.83 74.7572ZM1122.7 115H1103.89V38.8315H1121.16L1123.47 52.4L1121.31 50.5498C1122.85 46.8493 1125.68 43.6113 1129.79 40.836C1133.9 37.9578 1139.04 36.5187 1145.21 36.5187C1151.89 36.5187 1157.34 38.2662 1161.55 41.7611C1165.87 45.256 1168.85 49.8816 1170.5 55.6379H1167.41C1168.54 49.8816 1171.42 45.256 1176.05 41.7611C1180.78 38.2662 1186.48 36.5187 1193.16 36.5187C1202.41 36.5187 1209.51 39.1399 1214.44 44.3823C1219.37 49.5219 1221.84 56.4603 1221.84 65.1975V115H1203.18V70.1315C1203.18 64.6836 1201.8 60.5719 1199.02 57.7966C1196.35 54.9184 1192.75 53.4793 1188.23 53.4793C1185.35 53.4793 1182.68 54.1475 1180.21 55.4838C1177.85 56.82 1175.94 58.8245 1174.51 61.4971C1173.07 64.1696 1172.35 67.6131 1172.35 71.8276V115H1153.54V69.9773C1153.54 64.6322 1152.2 60.5719 1149.53 57.7966C1146.85 55.0212 1143.31 53.6335 1138.89 53.6335C1135.91 53.6335 1133.18 54.3017 1130.72 55.6379C1128.25 56.8714 1126.3 58.8759 1124.86 61.6512C1123.42 64.3238 1122.7 67.7159 1122.7 71.8276V115Z" fill="url(#paint0_radial_1470_5322)"/>
<path d="M33.9256 115L32.0969 115.545L32.5034 116.908H33.9256V115ZM0.312807 2.28919V0.380936H-2.24758L-1.51586 2.83454L0.312807 2.28919ZM20.8197 2.28919L22.6472 1.73999L22.2388 0.380936H20.8197V2.28919ZM38.7054 61.8054L40.5332 61.2571L40.5329 61.2562L38.7054 61.8054ZM41.3266 71.6734L39.469 72.1105L39.4721 72.123L41.3266 71.6734ZM43.7936 84.1626L41.9113 84.4763L45.6704 84.5073L43.7936 84.1626ZM46.4148 71.6734L44.5737 71.1713L44.5684 71.1909L44.5635 71.2106L46.4148 71.6734ZM49.1901 61.8054L47.3626 61.2562L47.36 61.2648L47.3575 61.2734L49.1901 61.8054ZM67.0758 2.28919V0.380936H65.6567L65.2483 1.73999L67.0758 2.28919ZM88.8162 2.28919L90.6476 1.75306L90.2459 0.380936H88.8162V2.28919ZM106.239 61.8054L108.072 61.2734L108.071 61.2693L106.239 61.8054ZM108.861 71.8276L107.003 72.2647L107.009 72.2904L107.016 72.3159L108.861 71.8276ZM111.636 84.1626L109.763 84.529L113.509 84.5297L111.636 84.1626ZM114.411 71.365L112.57 70.8629L112.565 70.8825L112.56 70.9022L114.411 71.365ZM117.032 62.1138L115.207 61.5586L115.203 61.5717L117.032 62.1138ZM135.227 2.28919V0.380936H133.812L133.401 1.73396L135.227 2.28919ZM155.271 2.28919L157.097 2.84371L157.845 0.380936H155.271V2.28919ZM121.041 115V116.908H122.456L122.867 115.555L121.041 115ZM101.922 115L100.091 115.537L100.493 116.908H101.922V115ZM77.8689 32.9724L79.7001 32.4355L77.8921 26.2697L76.0415 32.4228L77.8689 32.9724ZM53.199 115V116.908H54.6178L55.0264 115.55L53.199 115ZM35.7543 114.455L2.14148 1.74384L-1.51586 2.83454L32.0969 115.545L35.7543 114.455ZM0.312807 4.19745H20.8197V0.380936H0.312807V4.19745ZM18.9922 2.8384L36.8779 62.3546L40.5329 61.2562L22.6472 1.73999L18.9922 2.8384ZM36.8776 62.3538C37.7905 65.3968 38.6545 68.6488 39.4691 72.1105L43.1841 71.2363C42.354 67.7082 41.4705 64.3815 40.5332 61.2571L36.8776 62.3538ZM39.4721 72.123C40.28 75.4556 41.0936 79.5702 41.9113 84.4763L45.6759 83.8489C44.8489 78.887 44.0179 74.6755 43.1811 71.2238L39.4721 72.123ZM45.6704 84.5073C46.5916 79.4924 47.4571 75.3722 48.266 72.1362L44.5635 71.2106C43.7278 74.5533 42.8459 78.7592 41.9167 83.8178L45.6704 84.5073ZM48.2558 72.1755C49.1783 68.7928 50.1007 65.5135 51.0227 62.3375L47.3575 61.2734C46.4294 64.4705 45.5014 67.7698 44.5737 71.1713L48.2558 72.1755ZM51.0177 62.3546L68.9034 2.8384L65.2483 1.73999L47.3626 61.2562L51.0177 62.3546ZM67.0758 4.19745H88.8162V0.380936H67.0758V4.19745ZM86.9848 2.82533L104.408 62.3416L108.071 61.2693L90.6476 1.75306L86.9848 2.82533ZM104.407 62.3375C105.322 65.4901 106.188 68.7991 107.003 72.2647L110.718 71.3905C109.889 67.8663 109.007 64.4938 108.072 61.2734L104.407 62.3375ZM107.016 72.3159C107.927 75.7598 108.844 79.829 109.763 84.529L113.509 83.7962C112.578 79.0393 111.644 74.8852 110.705 71.3393L107.016 72.3159ZM113.509 84.5297C114.533 79.3035 115.451 75.0729 116.263 71.8279L112.56 70.9022C111.727 74.2358 110.794 78.5369 109.763 83.7954L113.509 84.5297ZM116.252 71.8671C117.175 68.4857 118.044 65.4155 118.862 62.6559L115.203 61.5717C114.376 64.3628 113.498 67.4602 112.57 70.8629L116.252 71.8671ZM118.858 62.669L137.052 2.84443L133.401 1.73396L115.207 61.5586L118.858 62.669ZM135.227 4.19745H155.271V0.380936H135.227V4.19745ZM153.445 1.73468L119.215 114.445L122.867 115.555L157.097 2.84371L153.445 1.73468ZM121.041 113.092H101.922V116.908H121.041V113.092ZM103.753 114.463L79.7001 32.4355L76.0378 33.5094L100.091 115.537L103.753 114.463ZM76.0415 32.4228L51.3716 114.45L55.0264 115.55L79.6963 33.522L76.0415 32.4228ZM53.199 113.092H33.9256V116.908H53.199V113.092ZM170.361 111.916L169.37 113.547L169.387 113.558L169.405 113.568L170.361 111.916ZM156.792 97.731L155.115 98.6408L155.121 98.6529L156.792 97.731ZM156.638 55.9463L158.327 56.8339L158.327 56.8339L156.638 55.9463ZM170.052 41.7611L171.021 43.4051L171.032 43.3988L171.043 43.3923L170.052 41.7611ZM209.678 41.4527L208.706 43.0944L208.717 43.1011L208.728 43.1077L209.678 41.4527ZM222.476 54.867L220.781 55.7445L220.788 55.7564L220.794 55.7681L222.476 54.867ZM227.102 81.233L227.106 83.1413L229.01 83.1368V81.233H227.102ZM161.726 81.3872L159.819 81.3383L159.768 83.3001L161.731 83.2955L161.726 81.3872ZM162.035 69.3606V67.4523H160.175L160.127 69.3117L162.035 69.3606ZM208.445 69.3606V71.2689H210.353V69.3606H208.445ZM203.357 56.7173L202.029 58.0878L202.04 58.098L202.05 58.1081L203.357 56.7173ZM178.687 54.7128L177.705 53.0765L177.693 53.0839L177.681 53.0915L178.687 54.7128ZM171.903 63.0389L173.664 63.7729L173.664 63.7729L171.903 63.0389ZM174.832 95.264L173.363 96.4822L173.372 96.4926L173.381 96.503L174.832 95.264ZM203.357 98.6562L202.405 97.0024L202.394 97.0088L202.383 97.0153L203.357 98.6562ZM209.987 90.3301V88.4218H208.547L208.152 89.8058L209.987 90.3301ZM227.41 90.3301L229.282 90.6998L229.732 88.4218H227.41V90.3301ZM215.075 109.912L213.961 108.362L213.956 108.366L213.95 108.371L215.075 109.912ZM190.405 115.096C183.2 115.096 176.855 113.471 171.317 110.265L169.405 113.568C175.585 117.146 182.603 118.913 190.405 118.913V115.096ZM171.351 110.285C165.883 106.965 161.593 102.483 158.463 96.8092L155.121 98.6529C158.57 104.903 163.326 109.878 169.37 113.547L171.351 110.285ZM158.47 96.8213C155.351 91.0711 153.767 84.4528 153.767 76.9158H149.95C149.95 85.0031 151.655 92.2616 155.115 98.6408L158.47 96.8213ZM153.767 76.9158C153.767 69.2618 155.306 62.5851 158.327 56.8339L154.949 55.0587C151.598 61.4369 149.95 68.7399 149.95 76.9158H153.767ZM158.327 56.8339C161.353 51.0751 165.579 46.6123 171.021 43.4051L169.084 40.1171C163.013 43.6942 158.296 48.6882 154.949 55.0587L158.327 56.8339ZM171.043 43.3923C176.471 40.0963 182.701 38.427 189.788 38.427V34.6105C182.074 34.6105 175.146 36.4361 169.062 40.1299L171.043 43.3923ZM189.788 38.427C197.222 38.427 203.502 40.0108 208.706 43.0944L210.651 39.8111C204.753 36.316 197.773 34.6105 189.788 34.6105V38.427ZM208.728 43.1077C213.957 46.1094 217.967 50.309 220.781 55.7445L224.171 53.9895C221.023 47.9124 216.501 43.1691 210.629 39.7978L208.728 43.1077ZM220.794 55.7681C223.699 61.191 225.193 67.754 225.193 75.5281H229.01C229.01 67.2667 227.42 60.0556 224.158 53.9659L220.794 55.7681ZM225.193 75.5281V81.233H229.01V75.5281H225.193ZM227.097 79.3248L161.722 79.4789L161.731 83.2955L227.106 83.1413L227.097 79.3248ZM163.634 81.4361L163.942 69.4095L160.127 69.3117L159.819 81.3383L163.634 81.4361ZM162.035 71.2689H208.445V67.4523H162.035V71.2689ZM210.353 69.3606C210.353 63.6648 208.49 58.921 204.663 55.3264L202.05 58.1081C205.008 60.8866 206.537 64.5716 206.537 69.3606H210.353ZM204.685 55.3467C200.96 51.7385 195.969 50.0292 189.943 50.0292V53.8457C195.223 53.8457 199.175 55.323 202.029 58.0878L204.685 55.3467ZM189.943 50.0292C185.256 50.0292 181.146 51.0117 177.705 53.0765L179.669 56.3491C182.395 54.7135 185.789 53.8457 189.943 53.8457V50.0292ZM177.681 53.0915C174.315 55.1806 171.813 58.2916 170.141 62.305L173.664 63.7729C175.076 60.3853 177.097 57.9455 179.693 56.3342L177.681 53.0915ZM170.141 62.305C168.476 66.3016 167.682 71.0897 167.682 76.6074H171.498C171.498 71.4348 172.246 67.1773 173.664 63.7729L170.141 62.305ZM167.682 76.6074C167.682 85.0608 169.472 91.7901 173.363 96.4822L176.301 94.0459C173.202 90.3091 171.498 84.6007 171.498 76.6074H167.682ZM173.381 96.503C177.432 101.249 183.323 103.494 190.713 103.494V99.6775C184.124 99.6775 179.427 97.7079 176.284 94.0251L173.381 96.503ZM190.713 103.494C196.082 103.494 200.662 102.475 204.331 100.297L202.383 97.0153C199.473 98.7431 195.624 99.6775 190.713 99.6775V103.494ZM204.309 100.31C208.109 98.122 210.651 94.9527 211.822 90.8543L208.152 89.8058C207.267 92.9028 205.389 95.2842 202.405 97.0024L204.309 100.31ZM209.987 92.2383H227.41V88.4218H209.987V92.2383ZM225.538 89.9603C223.982 97.836 220.126 103.931 213.961 108.362L216.189 111.461C223.181 106.436 227.548 99.4763 229.282 90.6998L225.538 89.9603ZM213.95 108.371C207.873 112.808 200.071 115.096 190.405 115.096V118.913C200.681 118.913 209.325 116.473 216.2 111.453L213.95 108.371ZM287.261 110.529L285.943 111.908L285.958 111.923L285.974 111.938L287.261 110.529ZM287.569 76.6074L288.806 78.0606L288.809 78.0584L287.569 76.6074ZM308.539 69.2064L308.69 71.1087L308.693 71.1084L308.539 69.2064ZM331.359 67.3562L331.513 69.2582L333.267 69.116V67.3562H331.359ZM329.354 57.334L327.697 58.2808L327.724 58.3282L327.754 58.374L329.354 57.334ZM323.958 52.7084L323.197 54.4584L323.229 54.4725L323.262 54.4854L323.958 52.7084ZM302.834 54.5586L303.953 56.1042L303.97 56.0918L303.987 56.0789L302.834 54.5586ZM298.363 63.8099V65.7181H300.271V63.8099H298.363ZM282.327 63.8099H280.419V65.7181H282.327V63.8099ZM286.49 49.4705L284.927 48.3761L284.921 48.3843L286.49 49.4705ZM298.517 39.9109L297.761 38.1586L297.748 38.1642L298.517 39.9109ZM334.288 40.2192L333.435 41.926L333.449 41.9332L333.464 41.9401L334.288 40.2192ZM345.698 51.0123L344.028 51.936L344.032 51.9437L344.037 51.9513L345.698 51.0123ZM349.707 115V116.908H351.615V115H349.707ZM333.209 115L331.315 115.233L331.521 116.908H333.209V115ZM331.821 103.744L333.715 103.511L332.839 96.4084L330.062 103.004L331.821 103.744ZM322.262 113.304L321.379 111.612L321.371 111.616L321.364 111.62L322.262 113.304ZM326.27 97.8852L324.963 96.4956L324.952 96.5054L324.942 96.5153L326.27 97.8852ZM331.513 80.1537H333.421V78.0915L331.365 78.2512L331.513 80.1537ZM315.632 81.3872L315.484 79.4847L315.474 79.4854L315.465 79.4862L315.632 81.3872ZM303.142 85.0877L304.287 86.6143L304.307 86.5993L304.327 86.5839L303.142 85.0877ZM302.834 100.198L301.667 101.708L301.667 101.708L302.834 100.198ZM306.38 115.096C298.714 115.096 292.842 113.04 288.548 109.119L285.974 111.938C291.137 116.651 298.011 118.913 306.38 118.913V115.096ZM288.579 109.149C284.374 105.13 282.231 99.8936 282.231 93.2596H278.414C278.414 100.811 280.897 107.087 285.943 111.908L288.579 109.149ZM282.231 93.2596C282.231 86.765 284.448 81.77 288.806 78.0606L286.333 75.1542C281.029 79.6681 278.414 85.7746 278.414 93.2596H282.231ZM288.809 78.0584C293.336 74.1911 299.89 71.8087 308.69 71.1087L308.388 67.3042C299.096 68.0433 291.67 70.5948 286.33 75.1564L288.809 78.0584ZM308.693 71.1084L331.513 69.2582L331.204 65.4542L308.385 67.3044L308.693 71.1084ZM333.267 67.3562V65.6601H329.45V67.3562H333.267ZM333.267 65.6601C333.267 61.9459 332.56 58.7648 330.954 56.294L327.754 58.374C328.821 60.0149 329.45 62.3845 329.45 65.6601H333.267ZM331.011 56.3872C329.556 53.8416 327.414 52.0116 324.653 50.9313L323.262 54.4854C325.23 55.2554 326.685 56.5092 327.697 58.2808L331.011 56.3872ZM324.719 50.9584C322.065 49.8045 319.02 49.2583 315.632 49.2583V53.0748C318.616 53.0748 321.122 53.5564 323.197 54.4584L324.719 50.9584ZM315.632 49.2583C309.857 49.2583 305.12 50.4295 301.681 53.0383L303.987 56.0789C306.51 54.1649 310.305 53.0748 315.632 53.0748V49.2583ZM301.715 53.0131C298.189 55.5663 296.454 59.2527 296.454 63.8099H300.271C300.271 60.3493 301.517 57.8682 303.953 56.1042L301.715 53.0131ZM298.363 61.9016H282.327V65.7181H298.363V61.9016ZM284.235 63.8099C284.235 58.5916 285.534 54.2035 288.059 50.5567L284.921 48.3843C281.895 52.7551 280.419 57.9266 280.419 63.8099H284.235ZM288.053 50.5648C290.708 46.7722 294.426 43.7954 299.285 41.6575L297.748 38.1642C292.328 40.5491 288.028 43.9454 284.927 48.3761L288.053 50.5648ZM299.273 41.663C304.236 39.5221 309.984 38.427 316.557 38.427V34.6105C309.561 34.6105 303.283 35.7768 297.761 38.1587L299.273 41.663ZM316.557 38.427C323.219 38.427 328.823 39.6203 333.435 41.926L335.142 38.5124C329.885 35.8841 323.668 34.6105 316.557 34.6105V38.427ZM333.464 41.9401C338.036 44.1312 341.546 47.4486 344.028 51.936L347.368 50.0886C344.505 44.9137 340.408 41.0356 335.113 38.4983L333.464 41.9401ZM344.037 51.9513C346.505 56.3187 347.799 61.8825 347.799 68.7439H351.615C351.615 61.42 350.236 55.1628 347.359 50.0734L344.037 51.9513ZM347.799 68.7439V115H351.615V68.7439H347.799ZM349.707 113.092H333.209V116.908H349.707V113.092ZM335.103 114.767L333.715 103.511L329.927 103.978L331.315 115.233L335.103 114.767ZM330.062 103.004C328.631 106.404 325.818 109.296 321.379 111.612L323.144 114.996C328.162 112.378 331.722 108.897 333.58 104.485L330.062 103.004ZM321.364 111.62C317.05 113.921 312.072 115.096 306.38 115.096V118.913C312.612 118.913 318.222 117.621 323.16 114.988L321.364 111.62ZM312.394 104.727C318.623 104.727 323.77 102.968 327.599 99.2552L324.942 96.5153C321.987 99.3809 317.882 100.911 312.394 100.911V104.727ZM327.578 99.2748C331.539 95.5474 333.421 90.423 333.421 84.1626H329.605C329.605 89.6204 327.992 93.6444 324.963 96.4956L327.578 99.2748ZM333.421 84.1626V80.1537H329.605V84.1626H333.421ZM331.365 78.2512L315.484 79.4847L315.779 83.2897L331.661 82.0562L331.365 78.2512ZM315.465 79.4862C309.509 80.0086 304.877 81.2805 301.958 83.5915L304.327 86.5839C306.342 84.9888 310.035 83.7937 315.798 83.2882L315.465 79.4862ZM301.997 83.5611C299.05 85.7717 297.534 88.8043 297.534 92.4887H301.35C301.35 90.0056 302.301 88.1042 304.287 86.6143L301.997 83.5611ZM297.534 92.4887C297.534 96.3478 298.848 99.5296 301.667 101.708L304.001 98.6881C302.297 97.3715 301.35 95.4138 301.35 92.4887H297.534ZM301.667 101.708C304.381 103.805 308.039 104.727 312.394 104.727V100.911C308.525 100.911 305.809 100.086 304.001 98.6881L301.667 101.708ZM415.984 38.5232H417.893V37.0571L416.476 36.6793L415.984 38.5232ZM415.984 55.9463V57.8546H417.893V55.9463H415.984ZM392.856 61.4971L394.149 62.9007L394.159 62.8916L394.169 62.8824L392.856 61.4971ZM386.997 115V116.908H388.906V115H386.997ZM368.186 115H366.278V116.908H368.186V115ZM368.186 38.9857V37.0775H366.278V38.9857H368.186ZM385.918 38.9857L387.817 38.7995L387.648 37.0775H385.918V38.9857ZM387.46 54.7128V56.6211H389.564L389.359 54.5266L387.46 54.7128ZM385.61 54.7128L383.74 54.3312L383.273 56.6211H385.61V54.7128ZM392.856 42.3779L394.082 43.8406L394.082 43.8406L392.856 42.3779ZM411.667 37.7522L411.814 35.8496L411.814 35.8496L411.667 37.7522ZM414.076 38.5232V55.9463H417.893V38.5232H414.076ZM415.984 54.0381H409.046V57.8546H415.984V54.0381ZM409.046 54.0381C401.813 54.0381 395.896 55.9891 391.544 60.1118L394.169 62.8824C397.629 59.6041 402.505 57.8546 409.046 57.8546V54.0381ZM391.564 60.0934C387.13 64.1767 385.089 70.277 385.089 77.9951H388.906C388.906 70.9112 390.77 66.0128 394.149 62.9007L391.564 60.0934ZM385.089 77.9951V115H388.906V77.9951H385.089ZM386.997 113.092H368.186V116.908H386.997V113.092ZM370.095 115V38.9857H366.278V115H370.095ZM368.186 40.894H385.918V37.0775H368.186V40.894ZM384.019 39.1719L385.561 54.899L389.359 54.5266L387.817 38.7995L384.019 39.1719ZM387.46 52.8046H385.61V56.6211H387.46V52.8046ZM387.479 55.0944C388.424 50.464 390.622 46.7393 394.082 43.8406L391.631 40.9151C387.484 44.3894 384.851 48.8881 383.74 54.3312L387.479 55.0944ZM394.082 43.8406C397.47 41.0019 401.939 39.5063 407.658 39.5063V35.6898C401.249 35.6898 395.849 37.3808 391.631 40.9151L394.082 43.8406ZM407.658 39.5063C408.946 39.5063 410.233 39.5558 411.521 39.6549L411.814 35.8496C410.429 35.7431 409.044 35.6898 407.658 35.6898V39.5063ZM411.521 39.6549C412.721 39.7472 414.043 39.9805 415.493 40.367L416.476 36.6793C414.842 36.2435 413.286 35.9629 411.814 35.8496L411.521 39.6549ZM440.188 111.916L439.198 113.547L439.215 113.558L439.232 113.568L440.188 111.916ZM426.62 97.731L424.942 98.6408L424.949 98.6529L426.62 97.731ZM426.466 55.9463L428.155 56.8339L428.155 56.8339L426.466 55.9463ZM439.88 41.7611L440.849 43.4051L440.86 43.3988L440.87 43.3923L439.88 41.7611ZM479.506 41.4527L478.533 43.0944L478.545 43.1011L478.556 43.1077L479.506 41.4527ZM492.304 54.867L490.609 55.7445L490.615 55.7564L490.621 55.7681L492.304 54.867ZM496.929 81.233L496.934 83.1413L498.837 83.1368V81.233H496.929ZM431.554 81.3872L429.646 81.3383L429.596 83.3001L431.558 83.2955L431.554 81.3872ZM431.862 69.3606V67.4523H430.002L429.955 69.3117L431.862 69.3606ZM478.273 69.3606V71.2689H480.181V69.3606H478.273ZM473.184 56.7173L471.857 58.0878L471.867 58.098L471.878 58.1081L473.184 56.7173ZM448.514 54.7128L447.533 53.0765L447.52 53.0839L447.508 53.0915L448.514 54.7128ZM441.73 63.0389L443.492 63.7729L443.492 63.7729L441.73 63.0389ZM444.66 95.264L443.191 96.4822L443.2 96.4926L443.208 96.503L444.66 95.264ZM473.184 98.6562L472.232 97.0024L472.221 97.0088L472.21 97.0153L473.184 98.6562ZM479.814 90.3301V88.4218H478.375L477.98 89.8058L479.814 90.3301ZM497.238 90.3301L499.11 90.6998L499.56 88.4218H497.238V90.3301ZM484.903 109.912L483.789 108.362L483.783 108.366L483.777 108.371L484.903 109.912ZM460.233 115.096C453.027 115.096 446.682 113.471 441.144 110.265L439.232 113.568C445.413 117.146 452.43 118.913 460.233 118.913V115.096ZM441.179 110.285C435.71 106.965 431.421 102.483 428.291 96.8092L424.949 98.6529C428.397 104.903 433.153 109.878 439.198 113.547L441.179 110.285ZM428.297 96.8213C425.178 91.0711 423.594 84.4528 423.594 76.9158H419.778C419.778 85.0031 421.482 92.2616 424.942 98.6408L428.297 96.8213ZM423.594 76.9158C423.594 69.2618 425.133 62.5851 428.155 56.8339L424.776 55.0587C421.425 61.4369 419.778 68.7399 419.778 76.9158H423.594ZM428.155 56.8339C431.181 51.0751 435.406 46.6123 440.849 43.4051L438.911 40.1171C432.841 43.6942 428.124 48.6882 424.776 55.0587L428.155 56.8339ZM440.87 43.3923C446.299 40.0963 452.528 38.427 459.616 38.427V34.6105C451.901 34.6105 444.974 36.4361 438.89 40.1299L440.87 43.3923ZM459.616 38.427C467.05 38.427 473.33 40.0108 478.533 43.0944L480.479 39.8111C474.581 36.316 467.601 34.6105 459.616 34.6105V38.427ZM478.556 43.1077C483.785 46.1094 487.794 50.309 490.609 55.7445L493.998 53.9895C490.851 47.9124 486.329 43.1691 480.456 39.7978L478.556 43.1077ZM490.621 55.7681C493.527 61.191 495.021 67.754 495.021 75.5281H498.837C498.837 67.2667 497.248 60.0556 493.986 53.9659L490.621 55.7681ZM495.021 75.5281V81.233H498.837V75.5281H495.021ZM496.925 79.3248L431.549 79.4789L431.558 83.2955L496.934 83.1413L496.925 79.3248ZM433.461 81.4361L433.77 69.4095L429.955 69.3117L429.646 81.3383L433.461 81.4361ZM431.862 71.2689H478.273V67.4523H431.862V71.2689ZM480.181 69.3606C480.181 63.6648 478.317 58.921 474.491 55.3264L471.878 58.1081C474.836 60.8866 476.364 64.5716 476.364 69.3606H480.181ZM474.512 55.3467C470.787 51.7385 465.797 50.0292 459.77 50.0292V53.8457C465.051 53.8457 469.003 55.323 471.857 58.0878L474.512 55.3467ZM459.77 50.0292C455.083 50.0292 450.974 51.0117 447.533 53.0765L449.496 56.3491C452.222 54.7135 455.617 53.8457 459.77 53.8457V50.0292ZM447.508 53.0915C444.142 55.1806 441.641 58.2916 439.969 62.305L443.492 63.7729C444.903 60.3853 446.925 57.9455 449.521 56.3342L447.508 53.0915ZM439.969 62.305C438.303 66.3016 437.509 71.0897 437.509 76.6074H441.326C441.326 71.4348 442.073 67.1773 443.492 63.7729L439.969 62.305ZM437.509 76.6074C437.509 85.0608 439.3 91.7901 443.191 96.4822L446.129 94.0459C443.03 90.3091 441.326 84.6007 441.326 76.6074H437.509ZM443.208 96.503C447.26 101.249 453.151 103.494 460.541 103.494V99.6775C453.952 99.6775 449.255 97.7079 446.111 94.0251L443.208 96.503ZM460.541 103.494C465.91 103.494 470.49 102.475 474.159 100.297L472.21 97.0153C469.3 98.7431 465.452 99.6775 460.541 99.6775V103.494ZM474.136 100.31C477.936 98.122 480.478 94.9527 481.649 90.8543L477.98 89.8058C477.095 92.9028 475.216 95.2842 472.232 97.0024L474.136 100.31ZM479.814 92.2383H497.238V88.4218H479.814V92.2383ZM495.365 89.9603C493.81 97.836 489.954 103.931 483.789 108.362L486.016 111.461C493.008 106.436 497.376 99.4763 499.11 90.6998L495.365 89.9603ZM483.777 108.371C477.7 112.808 469.899 115.096 460.233 115.096V118.913C470.508 118.913 479.153 116.473 486.028 111.453L483.777 108.371ZM576.054 2.28919H577.962V0.380936H576.054V2.28919ZM576.054 115V116.908H577.962V115H576.054ZM556.318 115H554.409V116.908H556.318V115ZM556.318 2.28919V0.380936H554.409V2.28919H556.318ZM571.274 76.1448H569.366V78.0531H571.274V76.1448ZM571.274 58.5675V56.6592H569.366V58.5675H571.274ZM612.133 53.4793L613.463 54.8487L613.463 54.8481L612.133 53.4793ZM612.133 24.8005L610.826 26.1901L610.836 26.1996L610.846 26.2089L612.133 24.8005ZM569.424 19.8665H567.515V21.7748H569.424V19.8665ZM569.424 2.28919V0.380936H567.515V2.28919H569.424ZM620.614 6.9148L621.54 5.24669L621.54 5.24669L620.614 6.9148ZM633.565 19.8665L631.897 20.7933L631.901 20.7999L631.905 20.8065L633.565 19.8665ZM633.565 58.4133L635.234 59.34L635.237 59.3336L635.241 59.3271L633.565 58.4133ZM620.614 71.5192L621.54 73.1873L621.552 73.1808L621.564 73.1742L620.614 71.5192ZM574.145 2.28919V115H577.962V2.28919H574.145ZM576.054 113.092H556.318V116.908H576.054V113.092ZM558.226 115V2.28919H554.409V115H558.226ZM556.318 4.19745H576.054V0.380936H556.318V4.19745ZM600.878 74.2366H571.274V78.0531H600.878V74.2366ZM573.182 76.1448V58.5675H569.366V76.1448H573.182ZM571.274 60.4758H596.715V56.6592H571.274V60.4758ZM596.715 60.4758C603.798 60.4758 609.491 58.703 613.463 54.8487L610.804 52.11C607.786 55.0399 603.2 56.6592 596.715 56.6592V60.4758ZM613.463 54.8481C617.512 50.9144 619.438 45.5426 619.438 38.9857H615.622C615.622 44.7639 613.95 49.0544 610.804 52.1106L613.463 54.8481ZM619.438 38.9857C619.438 32.4341 617.514 27.134 613.421 23.3922L610.846 26.2089C613.949 29.0457 615.622 33.2024 615.622 38.9857H619.438ZM613.441 23.4109C609.479 19.6814 603.905 17.9583 597.023 17.9583V21.7748C603.298 21.7748 607.798 23.341 610.826 26.1901L613.441 23.4109ZM597.023 17.9583H569.424V21.7748H597.023V17.9583ZM571.332 19.8665V2.28919H567.515V19.8665H571.332ZM569.424 4.19745H600.878V0.380936H569.424V4.19745ZM600.878 4.19745C608.224 4.19745 614.471 5.68511 619.687 8.58292L621.54 5.24669C615.655 1.97702 608.745 0.380936 600.878 0.380936V4.19745ZM619.687 8.58292C624.926 11.4936 628.987 15.554 631.897 20.7933L635.234 18.9398C631.977 13.0776 627.403 8.50349 621.54 5.24669L619.687 8.58292ZM631.905 20.8065C634.799 25.9195 636.283 32.0081 636.283 39.1399H640.099C640.099 31.4698 638.499 24.7094 635.226 18.9265L631.905 20.8065ZM636.283 39.1399C636.283 46.0542 634.804 52.158 631.89 57.4995L635.241 59.3271C638.495 53.3616 640.099 46.6165 640.099 39.1399H636.283ZM631.897 57.4866C628.984 62.7312 624.916 66.8492 619.664 69.8643L621.564 73.1742C627.413 69.8162 631.98 65.1969 635.234 59.34L631.897 57.4866ZM619.687 69.8511C614.471 72.7489 608.224 74.2366 600.878 74.2366V78.0531C608.745 78.0531 615.655 76.457 621.54 73.1873L619.687 69.8511ZM652.552 110.529L651.234 111.908L651.249 111.923L651.265 111.938L652.552 110.529ZM652.861 76.6074L654.097 78.0606L654.1 78.0584L652.861 76.6074ZM673.83 69.2064L673.981 71.1087L673.984 71.1084L673.83 69.2064ZM696.65 67.3562L696.804 69.2582L698.558 69.116V67.3562H696.65ZM694.645 57.334L692.988 58.2808L693.016 58.3282L693.045 58.374L694.645 57.334ZM689.249 52.7084L688.488 54.4584L688.52 54.4725L688.553 54.4854L689.249 52.7084ZM668.125 54.5586L669.244 56.1042L669.261 56.0918L669.278 56.0789L668.125 54.5586ZM663.654 63.8099V65.7181H665.562V63.8099H663.654ZM647.618 63.8099H645.71V65.7181H647.618V63.8099ZM651.781 49.4705L650.218 48.3761L650.212 48.3843L651.781 49.4705ZM663.808 39.9109L663.052 38.1586L663.039 38.1642L663.808 39.9109ZM699.579 40.2192L698.726 41.926L698.74 41.9332L698.755 41.9401L699.579 40.2192ZM710.989 51.0123L709.319 51.936L709.324 51.9437L709.328 51.9513L710.989 51.0123ZM714.998 115V116.908H716.906V115H714.998ZM698.5 115L696.606 115.233L696.812 116.908H698.5V115ZM697.112 103.744L699.006 103.511L698.131 96.4084L695.354 103.004L697.112 103.744ZM687.553 113.304L686.67 111.612L686.662 111.616L686.655 111.62L687.553 113.304ZM691.561 97.8852L690.254 96.4956L690.243 96.5054L690.233 96.5153L691.561 97.8852ZM696.804 80.1537H698.712V78.0915L696.656 78.2512L696.804 80.1537ZM680.923 81.3872L680.775 79.4847L680.765 79.4854L680.756 79.4862L680.923 81.3872ZM668.433 85.0877L669.578 86.6143L669.598 86.5993L669.618 86.5839L668.433 85.0877ZM668.125 100.198L666.958 101.708L666.958 101.708L668.125 100.198ZM671.671 115.096C664.005 115.096 658.133 113.04 653.839 109.119L651.265 111.938C656.428 116.651 663.303 118.913 671.671 118.913V115.096ZM653.87 109.149C649.665 105.13 647.522 99.8936 647.522 93.2596H643.705C643.705 100.811 646.189 107.087 651.234 111.908L653.87 109.149ZM647.522 93.2596C647.522 86.765 649.739 81.77 654.097 78.0606L651.624 75.1542C646.32 79.6681 643.705 85.7746 643.705 93.2596H647.522ZM654.1 78.0584C658.627 74.1911 665.181 71.8087 673.981 71.1087L673.679 67.3042C664.387 68.0433 656.962 70.5948 651.621 75.1564L654.1 78.0584ZM673.984 71.1084L696.804 69.2582L696.495 65.4542L673.676 67.3044L673.984 71.1084ZM698.558 67.3562V65.6601H694.741V67.3562H698.558ZM698.558 65.6601C698.558 61.9459 697.851 58.7648 696.245 56.294L693.045 58.374C694.112 60.0149 694.741 62.3845 694.741 65.6601H698.558ZM696.302 56.3872C694.847 53.8416 692.705 52.0116 689.944 50.9313L688.553 54.4854C690.521 55.2554 691.976 56.5092 692.988 58.2808L696.302 56.3872ZM690.01 50.9584C687.356 49.8045 684.311 49.2583 680.923 49.2583V53.0748C683.907 53.0748 686.413 53.5564 688.488 54.4584L690.01 50.9584ZM680.923 49.2583C675.148 49.2583 670.411 50.4295 666.972 53.0383L669.278 56.0789C671.801 54.1649 675.596 53.0748 680.923 53.0748V49.2583ZM667.006 53.0131C663.48 55.5663 661.745 59.2527 661.745 63.8099H665.562C665.562 60.3493 666.808 57.8682 669.244 56.1042L667.006 53.0131ZM663.654 61.9016H647.618V65.7181H663.654V61.9016ZM649.526 63.8099C649.526 58.5916 650.825 54.2035 653.35 50.5567L650.212 48.3843C647.186 52.7551 645.71 57.9266 645.71 63.8099H649.526ZM653.345 50.5648C655.999 46.7722 659.717 43.7954 664.576 41.6575L663.039 38.1642C657.619 40.5491 653.319 43.9454 650.218 48.3761L653.345 50.5648ZM664.564 41.663C669.527 39.5221 675.275 38.427 681.848 38.427V34.6105C674.852 34.6105 668.574 35.7768 663.052 38.1587L664.564 41.663ZM681.848 38.427C688.51 38.427 694.114 39.6203 698.726 41.926L700.433 38.5124C695.176 35.8841 688.959 34.6105 681.848 34.6105V38.427ZM698.755 41.9401C703.327 44.1312 706.837 47.4486 709.319 51.936L712.659 50.0886C709.796 44.9137 705.699 41.0356 700.404 38.4983L698.755 41.9401ZM709.328 51.9513C711.796 56.3187 713.09 61.8825 713.09 68.7439H716.906C716.906 61.42 715.527 55.1628 712.65 50.0734L709.328 51.9513ZM713.09 68.7439V115H716.906V68.7439H713.09ZM714.998 113.092H698.5V116.908H714.998V113.092ZM700.394 114.767L699.006 103.511L695.218 103.978L696.606 115.233L700.394 114.767ZM695.354 103.004C693.922 106.404 691.109 109.296 686.67 111.612L688.435 114.996C693.453 112.378 697.013 108.897 698.871 104.485L695.354 103.004ZM686.655 111.62C682.341 113.921 677.363 115.096 671.671 115.096V118.913C677.903 118.913 683.513 117.621 688.451 114.988L686.655 111.62ZM677.685 104.727C683.914 104.727 689.061 102.968 692.89 99.2552L690.233 96.5153C687.278 99.3809 683.173 100.911 677.685 100.911V104.727ZM692.869 99.2748C696.83 95.5474 698.712 90.423 698.712 84.1626H694.896C694.896 89.6204 693.283 93.6444 690.254 96.4956L692.869 99.2748ZM698.712 84.1626V80.1537H694.896V84.1626H698.712ZM696.656 78.2512L680.775 79.4847L681.07 83.2897L696.952 82.0562L696.656 78.2512ZM680.756 79.4862C674.801 80.0086 670.168 81.2805 667.249 83.5915L669.618 86.5839C671.633 84.9888 675.326 83.7937 681.089 83.2882L680.756 79.4862ZM667.288 83.5611C664.341 85.7717 662.825 88.8043 662.825 92.4887H666.641C666.641 90.0056 667.592 88.1042 669.578 86.6143L667.288 83.5611ZM662.825 92.4887C662.825 96.3478 664.139 99.5296 666.958 101.708L669.292 98.6881C667.588 97.3715 666.641 95.4138 666.641 92.4887H662.825ZM666.958 101.708C669.672 103.805 673.33 104.727 677.685 104.727V100.911C673.816 100.911 671.1 100.086 669.292 98.6881L666.958 101.708ZM781.276 38.5232H783.184V37.0571L781.767 36.6793L781.276 38.5232ZM781.276 55.9463V57.8546H783.184V55.9463H781.276ZM758.147 61.4971L759.44 62.9007L759.45 62.8916L759.46 62.8824L758.147 61.4971ZM752.288 115V116.908H754.197V115H752.288ZM733.478 115H731.569V116.908H733.478V115ZM733.478 38.9857V37.0775H731.569V38.9857H733.478ZM751.209 38.9857L753.108 38.7995L752.939 37.0775H751.209V38.9857ZM752.751 54.7128V56.6211H754.855L754.65 54.5266L752.751 54.7128ZM750.901 54.7128L749.031 54.3312L748.564 56.6211H750.901V54.7128ZM758.147 42.3779L759.373 43.8406L759.373 43.8406L758.147 42.3779ZM776.958 37.7522L777.105 35.8496L777.105 35.8496L776.958 37.7522ZM779.367 38.5232V55.9463H783.184V38.5232H779.367ZM781.276 54.0381H774.337V57.8546H781.276V54.0381ZM774.337 54.0381C767.104 54.0381 761.187 55.9891 756.835 60.1118L759.46 62.8824C762.92 59.6041 767.796 57.8546 774.337 57.8546V54.0381ZM756.855 60.0934C752.421 64.1767 750.38 70.277 750.38 77.9951H754.197C754.197 70.9112 756.061 66.0128 759.44 62.9007L756.855 60.0934ZM750.38 77.9951V115H754.197V77.9951H750.38ZM752.288 113.092H733.478V116.908H752.288V113.092ZM735.386 115V38.9857H731.569V115H735.386ZM733.478 40.894H751.209V37.0775H733.478V40.894ZM749.31 39.1719L750.852 54.899L754.65 54.5266L753.108 38.7995L749.31 39.1719ZM752.751 52.8046H750.901V56.6211H752.751V52.8046ZM752.77 55.0944C753.715 50.464 755.913 46.7393 759.373 43.8406L756.922 40.9151C752.775 44.3894 750.142 48.8881 749.031 54.3312L752.77 55.0944ZM759.373 43.8406C762.761 41.0019 767.23 39.5063 772.949 39.5063V35.6898C766.54 35.6898 761.14 37.3808 756.922 40.9151L759.373 43.8406ZM772.949 39.5063C774.237 39.5063 775.524 39.5558 776.812 39.6549L777.105 35.8496C775.72 35.7431 774.335 35.6898 772.949 35.6898V39.5063ZM776.812 39.6549C778.012 39.7472 779.334 39.9805 780.784 40.367L781.767 36.6793C780.133 36.2435 778.577 35.9629 777.105 35.8496L776.812 39.6549ZM794.543 110.529L793.225 111.908L793.24 111.923L793.256 111.938L794.543 110.529ZM794.851 76.6074L796.088 78.0606L796.091 78.0584L794.851 76.6074ZM815.821 69.2064L815.972 71.1087L815.975 71.1084L815.821 69.2064ZM838.64 67.3562L838.795 69.2582L840.549 69.116V67.3562H838.64ZM836.636 57.334L834.979 58.2808L835.006 58.3282L835.036 58.374L836.636 57.334ZM831.239 52.7084L830.479 54.4584L830.511 54.4725L830.544 54.4854L831.239 52.7084ZM810.116 54.5586L811.235 56.1042L811.252 56.0918L811.269 56.0789L810.116 54.5586ZM805.644 63.8099V65.7181H807.553V63.8099H805.644ZM789.609 63.8099H787.701V65.7181H789.609V63.8099ZM793.772 49.4705L792.209 48.3761L792.203 48.3843L793.772 49.4705ZM805.799 39.9109L805.043 38.1586L805.03 38.1642L805.799 39.9109ZM841.57 40.2192L840.717 41.926L840.731 41.9332L840.745 41.9401L841.57 40.2192ZM852.98 51.0123L851.31 51.936L851.314 51.9437L851.319 51.9513L852.98 51.0123ZM856.989 115V116.908H858.897V115H856.989ZM840.491 115L838.597 115.233L838.803 116.908H840.491V115ZM839.103 103.744L840.997 103.511L840.121 96.4084L837.344 103.004L839.103 103.744ZM829.543 113.304L828.661 111.612L828.653 111.616L828.645 111.62L829.543 113.304ZM833.552 97.8852L832.244 96.4956L832.234 96.5054L832.224 96.5153L833.552 97.8852ZM838.795 80.1537H840.703V78.0915L838.647 78.2512L838.795 80.1537ZM822.913 81.3872L822.766 79.4847L822.756 79.4854L822.747 79.4862L822.913 81.3872ZM810.424 85.0877L811.569 86.6143L811.589 86.5993L811.609 86.5839L810.424 85.0877ZM810.116 100.198L808.949 101.708L808.949 101.708L810.116 100.198ZM813.662 115.096C805.995 115.096 800.124 113.04 795.83 109.119L793.256 111.938C798.419 116.651 805.293 118.913 813.662 118.913V115.096ZM795.861 109.149C791.655 105.13 789.513 99.8936 789.513 93.2596H785.696C785.696 100.811 788.179 107.087 793.225 111.908L795.861 109.149ZM789.513 93.2596C789.513 86.765 791.729 81.77 796.088 78.0606L793.614 75.1542C788.311 79.6681 785.696 85.7746 785.696 93.2596H789.513ZM796.091 78.0584C800.618 74.1911 807.172 71.8087 815.972 71.1087L815.669 67.3042C806.378 68.0433 798.952 70.5948 793.612 75.1564L796.091 78.0584ZM815.975 71.1084L838.795 69.2582L838.486 65.4542L815.666 67.3044L815.975 71.1084ZM840.549 67.3562V65.6601H836.732V67.3562H840.549ZM840.549 65.6601C840.549 61.9459 839.842 58.7648 838.236 56.294L835.036 58.374C836.103 60.0149 836.732 62.3845 836.732 65.6601H840.549ZM838.293 56.3872C836.838 53.8416 834.696 52.0116 831.935 50.9313L830.544 54.4854C832.512 55.2554 833.967 56.5092 834.979 58.2808L838.293 56.3872ZM832 50.9584C829.346 49.8045 826.302 49.2583 822.913 49.2583V53.0748C825.898 53.0748 828.404 53.5564 830.479 54.4584L832 50.9584ZM822.913 49.2583C817.139 49.2583 812.401 50.4295 808.962 53.0383L811.269 56.0789C813.792 54.1649 817.587 53.0748 822.913 53.0748V49.2583ZM808.997 53.0131C805.471 55.5663 803.736 59.2527 803.736 63.8099H807.553C807.553 60.3493 808.799 57.8682 811.235 56.1042L808.997 53.0131ZM805.644 61.9016H789.609V65.7181H805.644V61.9016ZM791.517 63.8099C791.517 58.5916 792.816 54.2035 795.341 50.5567L792.203 48.3843C789.177 52.7551 787.701 57.9266 787.701 63.8099H791.517ZM795.335 50.5648C797.99 46.7722 801.708 43.7954 806.567 41.6575L805.03 38.1642C799.61 40.5491 795.31 43.9454 792.209 48.3761L795.335 50.5648ZM806.554 41.663C811.518 39.5221 817.266 38.427 823.838 38.427V34.6105C816.842 34.6105 810.564 35.7768 805.043 38.1587L806.554 41.663ZM823.838 38.427C830.501 38.427 836.105 39.6203 840.717 41.926L842.423 38.5124C837.167 35.8841 830.95 34.6105 823.838 34.6105V38.427ZM840.745 41.9401C845.318 44.1312 848.828 47.4486 851.31 51.936L854.65 50.0886C851.787 44.9137 847.69 41.0356 842.395 38.4983L840.745 41.9401ZM851.319 51.9513C853.787 56.3187 855.08 61.8825 855.08 68.7439H858.897C858.897 61.42 857.518 55.1628 854.641 50.0734L851.319 51.9513ZM855.08 68.7439V115H858.897V68.7439H855.08ZM856.989 113.092H840.491V116.908H856.989V113.092ZM842.385 114.767L840.997 103.511L837.209 103.978L838.597 115.233L842.385 114.767ZM837.344 103.004C835.913 106.404 833.1 109.296 828.661 111.612L830.426 114.996C835.444 112.378 839.004 108.897 840.862 104.485L837.344 103.004ZM828.645 111.62C824.332 113.921 819.354 115.096 813.662 115.096V118.913C819.894 118.913 825.503 117.621 830.441 114.988L828.645 111.62ZM819.675 104.727C825.905 104.727 831.052 102.968 834.881 99.2552L832.224 96.5153C829.269 99.3809 825.164 100.911 819.675 100.911V104.727ZM834.86 99.2748C838.82 95.5474 840.703 90.423 840.703 84.1626H836.886C836.886 89.6204 835.274 93.6444 832.244 96.4956L834.86 99.2748ZM840.703 84.1626V80.1537H836.886V84.1626H840.703ZM838.647 78.2512L822.766 79.4847L823.061 83.2897L838.942 82.0562L838.647 78.2512ZM822.747 79.4862C816.791 80.0086 812.159 81.2805 809.24 83.5915L811.609 86.5839C813.623 84.9888 817.317 83.7937 823.08 83.2882L822.747 79.4862ZM809.279 83.5611C806.332 85.7717 804.815 88.8043 804.815 92.4887H808.632C808.632 90.0056 809.583 88.1042 811.569 86.6143L809.279 83.5611ZM804.815 92.4887C804.815 96.3478 806.13 99.5296 808.949 101.708L811.283 98.6881C809.579 97.3715 808.632 95.4138 808.632 92.4887H804.815ZM808.949 101.708C811.663 103.805 815.321 104.727 819.675 104.727V100.911C815.806 100.911 813.091 100.086 811.283 98.6881L808.949 101.708ZM887.649 112.07L886.612 113.673L886.631 113.684L886.649 113.696L887.649 112.07ZM875.314 98.0394L873.596 98.869L873.601 98.881L873.607 98.8928L875.314 98.0394ZM875.314 56.2547L873.596 55.4243L873.59 55.4365L875.314 56.2547ZM888.112 41.7611L887.095 40.1463L887.095 40.1463L888.112 41.7611ZM922.495 39.7567L921.658 41.4714L921.674 41.4793L921.691 41.4869L922.495 39.7567ZM932.672 48.5453L931.051 49.5528L934.58 55.2297V48.5453H932.672ZM932.672 0.284758V-1.6235H930.763V0.284758H932.672ZM951.328 0.284758H953.237V-1.6235H951.328V0.284758ZM951.328 115V116.908H953.237V115H951.328ZM934.059 115L932.161 115.197L932.339 116.908H934.059V115ZM932.826 103.128L934.724 102.93L934.07 96.6393L931.135 102.242L932.826 103.128ZM922.341 113.304L921.458 111.612L921.451 111.616L921.443 111.62L922.341 113.304ZM922.341 96.9601L923.299 98.6103L923.319 98.5989L923.338 98.5871L922.341 96.9601ZM929.742 88.7882L928.045 87.9154L928.04 87.9251L928.035 87.9348L929.742 88.7882ZM929.742 64.5808L928.035 65.4342L928.051 65.4647L928.067 65.4946L929.742 64.5808ZM922.341 56.4089L921.307 58.0124L921.325 58.0243L921.344 58.0359L922.341 56.4089ZM899.676 56.4089L900.673 58.0359L900.692 58.0243L900.71 58.0124L899.676 56.4089ZM892.275 64.5808L890.568 63.7274L890.558 63.7477L890.548 63.7683L892.275 64.5808ZM892.275 88.634L890.548 89.4465L890.558 89.4671L890.568 89.4874L892.275 88.634ZM899.676 96.8059L900.673 95.1789L899.676 96.8059ZM906.768 115.096C899.656 115.096 893.643 113.519 888.649 110.445L886.649 113.696C892.345 117.201 899.078 118.913 906.768 118.913V115.096ZM888.686 110.468C883.749 107.274 879.86 102.864 877.021 97.186L873.607 98.8928C876.73 105.138 881.064 110.083 886.612 113.673L888.686 110.468ZM877.033 97.2098C874.301 91.5524 872.905 84.9073 872.905 77.2241H869.089C869.089 85.3708 870.57 92.6026 873.596 98.869L877.033 97.2098ZM872.905 77.2241C872.905 69.542 874.301 62.8401 877.038 57.0728L873.59 55.4365C870.571 61.7987 869.089 69.0764 869.089 77.2241H872.905ZM877.032 57.0851C879.865 51.2247 883.894 46.6716 889.128 43.3759L887.095 40.1463C881.228 43.8404 876.725 48.9497 873.596 55.4243L877.032 57.0851ZM889.128 43.3759C894.329 40.1017 900.542 38.427 907.848 38.427V34.6105C899.94 34.6105 892.996 36.4307 887.095 40.1463L889.128 43.3759ZM907.848 38.427C912.928 38.427 917.521 39.4509 921.658 41.4714L923.333 38.042C918.63 35.7452 913.457 34.6105 907.848 34.6105V38.427ZM921.691 41.4869C925.805 43.4007 928.9 46.0925 931.051 49.5528L934.292 47.5379C931.715 43.3916 928.026 40.2243 923.3 38.0264L921.691 41.4869ZM934.58 48.5453V0.284758H930.763V48.5453H934.58ZM932.672 2.19302H951.328V-1.6235H932.672V2.19302ZM949.42 0.284758V115H953.237V0.284758H949.42ZM951.328 113.092H934.059V116.908H951.328V113.092ZM935.957 114.803L934.724 102.93L930.928 103.325L932.161 115.197L935.957 114.803ZM931.135 102.242C929.072 106.182 925.876 109.307 921.458 111.612L923.224 114.996C928.263 112.366 932.057 108.708 934.516 104.013L931.135 102.242ZM921.443 111.62C917.12 113.926 912.243 115.096 906.768 115.096V118.913C912.806 118.913 918.311 117.616 923.239 114.988L921.443 111.62ZM910.931 101.644C915.621 101.644 919.769 100.66 923.299 98.6103L921.383 95.3099C918.541 96.9603 915.082 97.8272 910.931 97.8272V101.644ZM923.338 98.5871C926.843 96.4389 929.55 93.4404 931.449 89.6416L928.035 87.9348C926.44 91.1258 924.212 93.5752 921.344 95.3331L923.338 98.5871ZM931.439 89.6609C933.444 85.7627 934.426 81.3975 934.426 76.6074H930.609C930.609 80.8629 929.741 84.6182 928.045 87.9154L931.439 89.6609ZM934.426 76.6074C934.426 71.7252 933.448 67.3898 931.417 63.667L928.067 65.4946C929.737 68.556 930.609 72.2383 930.609 76.6074H934.426ZM931.449 63.7274C929.55 59.9286 926.843 56.9301 923.338 54.7819L921.344 58.0359C924.212 59.7937 926.44 62.2432 928.035 65.4342L931.449 63.7274ZM923.376 54.8054C919.832 52.5195 915.656 51.4169 910.931 51.4169V55.2334C915.046 55.2334 918.477 56.1866 921.307 58.0124L923.376 54.8054ZM910.931 51.4169C906.299 51.4169 902.177 52.5241 898.641 54.8054L900.71 58.0124C903.547 56.182 906.929 55.2334 910.931 55.2334V51.4169ZM898.678 54.7819C895.174 56.9301 892.467 59.9286 890.568 63.7274L893.981 65.4342C895.577 62.2432 897.805 59.7937 900.673 58.0359L898.678 54.7819ZM890.548 63.7683C888.765 67.5572 887.899 71.8514 887.899 76.6074H891.716C891.716 72.3178 892.495 68.5942 894.001 65.3933L890.548 63.7683ZM887.899 76.6074C887.899 81.3634 888.765 85.6576 890.548 89.4465L894.001 87.8215C892.495 84.6206 891.716 80.897 891.716 76.6074H887.899ZM890.568 89.4874C892.467 93.2862 895.174 96.2847 898.678 98.4329L900.673 95.1789C897.805 93.421 895.577 90.9716 893.981 87.7806L890.568 89.4874ZM898.678 98.4329C902.209 100.597 906.318 101.644 910.931 101.644V97.8272C906.91 97.8272 903.515 96.921 900.673 95.1789L898.678 98.4329ZM970.932 115H969.023V116.908H970.932V115ZM970.932 38.8315V36.9233H969.023V38.8315H970.932ZM989.743 38.8315H991.651V36.9233H989.743V38.8315ZM989.743 115V116.908H991.651V115H989.743ZM972.011 20.3291L970.631 21.6467L970.661 21.6788L970.693 21.7094L972.011 20.3291ZM972.011 4.13943L970.693 2.75908L970.677 2.7744L970.662 2.79009L972.011 4.13943ZM988.201 4.13943L986.851 5.48878L986.867 5.50446L986.883 5.51978L988.201 4.13943ZM988.201 20.3291L989.55 21.6784L989.55 21.6784L988.201 20.3291ZM972.84 115V38.8315H969.023V115H972.84ZM970.932 40.7398H989.743V36.9233H970.932V40.7398ZM987.834 38.8315V115H991.651V38.8315H987.834ZM989.743 113.092H970.932V116.908H989.743V113.092ZM980.183 21.6588C977.477 21.6588 975.228 20.7613 973.329 18.9487L970.693 21.7094C973.317 24.2141 976.516 25.4753 980.183 25.4753V21.6588ZM973.391 19.0115C971.579 17.1126 970.681 14.8635 970.681 12.1572H966.865C966.865 15.8239 968.126 19.0228 970.631 21.6467L973.391 19.0115ZM970.681 12.1572C970.681 9.45201 971.577 7.27242 973.36 5.48877L970.662 2.79009C968.128 5.32369 966.865 8.48925 966.865 12.1572H970.681ZM973.329 5.51978C975.228 3.70722 977.477 2.80977 980.183 2.80977V-1.00675C976.516 -1.00675 973.317 0.254418 970.693 2.75908L973.329 5.51978ZM980.183 2.80977C982.888 2.80977 985.068 3.70514 986.851 5.48878L989.55 2.79009C987.016 0.256497 983.851 -1.00675 980.183 -1.00675V2.80977ZM986.883 5.51978C988.759 7.31056 989.685 9.48077 989.685 12.1572H993.501C993.501 8.46049 992.165 5.28555 989.518 2.75909L986.883 5.51978ZM989.685 12.1572C989.685 14.8355 988.756 17.0747 986.851 18.9797L989.55 21.6784C992.168 19.0606 993.501 15.8519 993.501 12.1572H989.685ZM986.851 18.9797C985.068 20.7634 982.888 21.6588 980.183 21.6588V25.4753C983.851 25.4753 987.016 24.212 989.55 21.6784L986.851 18.9797ZM1009.33 55.4838L1007.64 54.595L1007.64 54.6062L1009.33 55.4838ZM1022.13 41.6069L1021.12 39.987L1021.12 39.987L1022.13 41.6069ZM1057.75 40.836L1056.74 42.4562L1056.75 42.4644L1056.76 42.4723L1057.75 40.836ZM1067.46 52.5542L1068.69 54.0109L1069.71 53.1489L1069.25 51.8962L1067.46 52.5542ZM1065.46 54.2503L1063.56 54.0604L1063.09 58.7538L1066.69 55.707L1065.46 54.2503ZM1067 38.8315V36.9233H1065.27L1065.1 38.6417L1067 38.8315ZM1084.42 38.8315H1086.33V36.9233H1084.42V38.8315ZM1079.49 133.04L1077.8 132.142L1077.79 132.159L1077.79 132.175L1079.49 133.04ZM1065.76 147.379L1064.84 145.708L1064.83 145.718L1064.81 145.728L1065.76 147.379ZM1017.66 143.679L1018.88 142.216L1018.88 142.216L1017.66 143.679ZM1005.32 119.626V117.717H1003.17L1003.43 119.855L1005.32 119.626ZM1024.13 119.626L1026.03 119.389L1025.82 117.717H1024.13V119.626ZM1030.3 131.19L1029.11 132.684L1029.12 132.692L1029.14 132.701L1030.3 131.19ZM1059.9 129.648L1058.59 128.262L1058.57 128.28L1058.56 128.298L1059.9 129.648ZM1065.76 95.5724L1067.06 94.1741L1063.86 91.1964V95.5724H1065.76ZM1067.92 97.5769L1069.7 98.2593L1070.17 97.0556L1069.22 96.1785L1067.92 97.5769ZM1057.75 109.141L1056.78 107.493L1056.78 107.493L1057.75 109.141ZM1021.82 108.524L1022.82 106.899L1022.82 106.899L1021.82 108.524ZM1009.33 94.9557L1011.03 94.0781L1011.03 94.0781L1009.33 94.9557ZM1026.29 86.3212L1024.58 87.1537L1024.59 87.1854L1024.61 87.2165L1026.29 86.3212ZM1033.54 94.1847L1032.52 95.7969L1032.52 95.7969L1033.54 94.1847ZM1055.43 94.3389L1056.42 95.9752L1056.42 95.9706L1056.43 95.9659L1055.43 94.3389ZM1062.68 86.4754L1060.98 85.6015L1060.98 85.6117L1060.97 85.622L1062.68 86.4754ZM1062.83 63.3473L1061.13 64.2007L1061.13 64.2116L1061.14 64.2225L1062.83 63.3473ZM1055.59 55.6379L1054.61 57.2743L1054.62 57.2813L1054.63 57.2882L1055.59 55.6379ZM1033.38 55.7921L1034.37 57.4285L1034.39 57.4166L1034.41 57.4043L1033.38 55.7921ZM1006.77 75.2197C1006.77 68.0805 1008.2 61.8102 1011.03 56.3613L1007.64 54.6062C1004.5 60.67 1002.95 67.5569 1002.95 75.2197H1006.77ZM1011.02 56.3725C1013.95 50.8032 1017.99 46.4341 1023.14 43.2268L1021.12 39.987C1015.38 43.564 1010.88 48.4461 1007.64 54.595L1011.02 56.3725ZM1023.14 43.2268C1028.25 40.0454 1034.21 38.427 1041.09 38.427V34.6105C1033.59 34.6105 1026.91 36.3842 1021.12 39.987L1023.14 43.2268ZM1041.09 38.427C1047.28 38.427 1052.47 39.7992 1056.74 42.4562L1058.75 39.2158C1053.77 36.1164 1047.86 34.6105 1041.09 34.6105V38.427ZM1056.76 42.4723C1061.02 45.0248 1063.97 48.5867 1065.67 53.2122L1069.25 51.8962C1067.25 46.4481 1063.73 42.1979 1058.73 39.1997L1056.76 42.4723ZM1066.23 51.0975L1064.22 52.7935L1066.69 55.707L1068.69 54.0109L1066.23 51.0975ZM1067.35 54.4401L1068.9 39.0214L1065.1 38.6417L1063.56 54.0604L1067.35 54.4401ZM1067 40.7398H1084.42V36.9233H1067V40.7398ZM1082.51 38.8315V111.145H1086.33V38.8315H1082.51ZM1082.51 111.145C1082.51 119.325 1080.92 126.302 1077.8 132.142L1081.17 133.938C1084.63 127.443 1086.33 119.823 1086.33 111.145H1082.51ZM1077.79 132.175C1074.77 138.117 1070.46 142.61 1064.84 145.708L1066.69 149.05C1072.99 145.57 1077.83 140.504 1081.19 133.904L1077.79 132.175ZM1064.81 145.728C1059.3 148.917 1052.55 150.559 1044.49 150.559V154.376C1053.07 154.376 1060.51 152.626 1066.72 149.031L1064.81 145.728ZM1044.49 150.559C1033.95 150.559 1025.47 147.734 1018.88 142.216L1016.43 145.141C1023.83 151.342 1033.23 154.376 1044.49 154.376V150.559ZM1018.88 142.216C1012.31 136.708 1008.4 129.156 1007.22 119.396L1003.43 119.855C1004.71 130.448 1009.02 138.932 1016.43 145.141L1018.88 142.216ZM1005.32 121.534H1024.13V117.717H1005.32V121.534ZM1022.24 119.862C1022.91 125.23 1025.18 129.561 1029.11 132.684L1031.49 129.695C1028.43 127.267 1026.59 123.889 1026.03 119.389L1022.24 119.862ZM1029.14 132.701C1033.15 135.8 1038.33 137.261 1044.49 137.261V133.444C1038.93 133.444 1034.64 132.13 1031.47 129.679L1029.14 132.701ZM1044.49 137.261C1051.36 137.261 1057.02 135.229 1061.25 130.997L1058.56 128.298C1055.18 131.673 1050.57 133.444 1044.49 133.444V137.261ZM1061.22 131.033C1065.57 126.906 1067.67 121.33 1067.67 114.537H1063.86C1063.86 120.491 1062.05 124.989 1058.59 128.262L1061.22 131.033ZM1067.67 114.537V95.5724H1063.86V114.537H1067.67ZM1064.47 96.9708L1066.62 98.9752L1069.22 96.1785L1067.06 94.1741L1064.47 96.9708ZM1066.14 96.8944C1064.46 101.277 1061.38 104.809 1056.78 107.493L1058.71 110.789C1063.98 107.716 1067.68 103.539 1069.7 98.2593L1066.14 96.8944ZM1056.78 107.493C1052.18 110.179 1046.82 111.55 1040.63 111.55V115.366C1047.4 115.366 1053.44 113.859 1058.71 110.789L1056.78 107.493ZM1040.63 111.55C1033.74 111.55 1027.82 109.977 1022.82 106.899L1020.82 110.149C1026.51 113.65 1033.14 115.366 1040.63 115.366V111.55ZM1022.82 106.899C1017.78 103.797 1013.85 99.5374 1011.03 94.0781L1007.64 95.8332C1010.77 101.887 1015.17 106.672 1020.82 110.149L1022.82 106.899ZM1011.03 94.0781C1008.2 88.6293 1006.77 82.3589 1006.77 75.2197H1002.95C1002.95 82.8825 1004.5 89.7694 1007.64 95.8332L1011.03 94.0781ZM1021.92 74.7572C1021.92 79.3208 1022.79 83.4668 1024.58 87.1537L1028.01 85.4887C1026.51 82.3913 1025.73 78.828 1025.73 74.7572H1021.92ZM1024.61 87.2165C1026.51 90.7921 1029.15 93.6628 1032.52 95.7969L1034.56 92.5726C1031.76 90.8006 1029.57 88.4289 1027.98 85.4259L1024.61 87.2165ZM1032.52 95.7969C1035.94 97.967 1039.91 99.0225 1044.33 99.0225V95.206C1040.53 95.206 1037.3 94.3085 1034.56 92.5726L1032.52 95.7969ZM1044.33 99.0225C1048.93 99.0225 1052.98 98.0361 1056.42 95.9752L1054.45 92.7026C1051.72 94.3422 1048.37 95.206 1044.33 95.206V99.0225ZM1056.43 95.9659C1059.92 93.8296 1062.58 90.9427 1064.39 87.3288L1060.97 85.622C1059.49 88.5867 1057.32 90.9421 1054.44 92.7119L1056.43 95.9659ZM1064.38 87.3493C1066.28 83.647 1067.21 79.4329 1067.21 74.7572H1063.39C1063.39 78.9214 1062.57 82.5195 1060.98 85.6015L1064.38 87.3493ZM1067.21 74.7572C1067.21 70.1023 1066.34 65.985 1064.53 62.4721L1061.14 64.2225C1062.62 67.0827 1063.39 70.572 1063.39 74.7572H1067.21ZM1064.54 62.4939C1062.73 58.8709 1060.05 56.0245 1056.55 53.9877L1054.63 57.2882C1057.49 58.9519 1059.65 61.245 1061.13 64.2007L1064.54 62.4939ZM1056.57 54.0016C1053.13 51.9368 1049.02 50.9543 1044.33 50.9543V54.7708C1048.49 54.7708 1051.88 55.6386 1054.61 57.2743L1056.57 54.0016ZM1044.33 50.9543C1039.81 50.9543 1035.8 52.0051 1032.36 54.18L1034.41 57.4043C1037.14 55.6731 1040.42 54.7708 1044.33 54.7708V50.9543ZM1032.4 54.1558C1029 56.1972 1026.39 59.0419 1024.59 62.6481L1028 64.3549C1029.49 61.3824 1031.6 59.0876 1034.37 57.4285L1032.4 54.1558ZM1024.59 62.6481C1022.79 66.2387 1021.92 70.2899 1021.92 74.7572H1025.73C1025.73 70.7955 1026.5 67.343 1028 64.3549L1024.59 62.6481ZM1122.7 115V116.908H1124.61V115H1122.7ZM1103.89 115H1101.98V116.908H1103.89V115ZM1103.89 38.8315V36.9233H1101.98V38.8315H1103.89ZM1121.16 38.8315L1123.04 38.5109L1122.77 36.9233H1121.16V38.8315ZM1123.47 52.4L1122.23 53.8489L1126.24 57.2865L1125.35 52.0794L1123.47 52.4ZM1121.31 50.5498L1119.55 49.8158L1119.02 51.096L1120.07 51.9986L1121.31 50.5498ZM1129.79 40.836L1130.86 42.4176L1130.87 42.4086L1130.89 42.3993L1129.79 40.836ZM1161.55 41.7611L1160.34 43.23L1160.34 43.2372L1160.35 43.2443L1161.55 41.7611ZM1170.5 55.6379V57.5462H1173.03L1172.33 55.1137L1170.5 55.6379ZM1167.41 55.6379L1165.54 55.2701L1165.09 57.5462H1167.41V55.6379ZM1176.05 41.7611L1174.91 40.2265L1174.91 40.2325L1174.9 40.2386L1176.05 41.7611ZM1214.44 44.3823L1213.05 45.6901L1213.06 45.697L1213.06 45.7038L1214.44 44.3823ZM1221.84 115V116.908H1223.75V115H1221.84ZM1203.18 115H1201.28V116.908H1203.18V115ZM1199.02 57.7966L1197.62 59.095L1197.65 59.1209L1197.67 59.1459L1199.02 57.7966ZM1180.21 55.4838L1179.3 53.8058L1179.29 53.814L1179.27 53.8225L1180.21 55.4838ZM1174.51 61.4971L1176.19 62.4018L1176.19 62.4018L1174.51 61.4971ZM1172.35 115V116.908H1174.26V115H1172.35ZM1153.54 115H1151.63V116.908H1153.54V115ZM1149.53 57.7966L1150.9 56.4729L1150.9 56.4729L1149.53 57.7966ZM1130.72 55.6379L1131.57 57.3447L1131.6 57.3308L1131.63 57.3159L1130.72 55.6379ZM1124.86 61.6512L1126.54 62.5559L1126.54 62.5429L1126.55 62.5296L1124.86 61.6512ZM1122.7 113.092H1103.89V116.908H1122.7V113.092ZM1105.8 115V38.8315H1101.98V115H1105.8ZM1103.89 40.7398H1121.16V36.9233H1103.89V40.7398ZM1119.28 39.1522L1121.59 52.7207L1125.35 52.0794L1123.04 38.5109L1119.28 39.1522ZM1124.71 50.9512L1122.55 49.1009L1120.07 51.9986L1122.23 53.8489L1124.71 50.9512ZM1123.07 51.2837C1124.44 48.0013 1126.98 45.034 1130.86 42.4176L1128.72 39.2543C1124.38 42.1886 1121.27 45.6972 1119.55 49.8158L1123.07 51.2837ZM1130.89 42.3993C1134.61 39.7926 1139.34 38.427 1145.21 38.427V34.6105C1138.74 34.6105 1133.2 36.123 1128.7 39.2727L1130.89 42.3993ZM1145.21 38.427C1151.55 38.427 1156.53 40.0777 1160.34 43.23L1162.77 40.2922C1158.14 36.4546 1152.23 34.6105 1145.21 34.6105V38.427ZM1160.35 43.2443C1164.34 46.4729 1167.12 50.7522 1168.66 56.1622L1172.33 55.1137C1170.59 49.0111 1167.4 44.0392 1162.75 40.2779L1160.35 43.2443ZM1170.5 53.7297H1167.41V57.5462H1170.5V53.7297ZM1169.29 56.0058C1170.33 50.704 1172.95 46.4919 1177.2 43.2836L1174.9 40.2386C1169.89 44.0202 1166.76 49.0592 1165.54 55.2701L1169.29 56.0058ZM1177.18 43.2957C1181.54 40.0759 1186.83 38.427 1193.16 38.427V34.6105C1186.13 34.6105 1180.01 36.4565 1174.91 40.2265L1177.18 43.2957ZM1193.16 38.427C1202.05 38.427 1208.57 40.9328 1213.05 45.6901L1215.83 43.0744C1210.44 37.3471 1202.78 34.6105 1193.16 34.6105V38.427ZM1213.06 45.7038C1217.58 50.4113 1219.93 56.8351 1219.93 65.1975H1223.75C1223.75 56.0854 1221.17 48.6324 1215.82 43.0608L1213.06 45.7038ZM1219.93 65.1975V115H1223.75V65.1975H1219.93ZM1221.84 113.092H1203.18V116.908H1221.84V113.092ZM1205.09 115V70.1315H1201.28V115H1205.09ZM1205.09 70.1315C1205.09 64.3774 1203.62 59.7006 1200.37 56.4472L1197.67 59.1459C1199.97 61.4433 1201.28 64.9897 1201.28 70.1315H1205.09ZM1200.42 56.4981C1197.33 53.1708 1193.19 51.5711 1188.23 51.5711V55.3876C1192.31 55.3876 1195.37 56.666 1197.62 59.095L1200.42 56.4981ZM1188.23 51.5711C1185.04 51.5711 1182.06 52.3144 1179.3 53.8058L1181.12 57.1617C1183.3 55.9806 1185.66 55.3876 1188.23 55.3876V51.5711ZM1179.27 53.8225C1176.56 55.3563 1174.41 57.6412 1172.83 60.5924L1176.19 62.4018C1177.48 60.0078 1179.14 58.2838 1181.15 57.145L1179.27 53.8225ZM1172.83 60.5924C1171.19 63.6299 1170.44 67.4136 1170.44 71.8276H1174.26C1174.26 67.8127 1174.94 64.7093 1176.19 62.4018L1172.83 60.5924ZM1170.44 71.8276V115H1174.26V71.8276H1170.44ZM1172.35 113.092H1153.54V116.908H1172.35V113.092ZM1155.44 115V69.9773H1151.63V115H1155.44ZM1155.44 69.9773C1155.44 64.3321 1154.03 59.7224 1150.9 56.4729L1148.15 59.1202C1150.37 61.4215 1151.63 64.9323 1151.63 69.9773H1155.44ZM1150.9 56.4729C1147.82 53.268 1143.74 51.7253 1138.89 51.7253V55.5418C1142.87 55.5418 1145.89 56.7744 1148.15 59.1202L1150.9 56.4729ZM1138.89 51.7253C1135.61 51.7253 1132.57 52.4631 1129.81 53.96L1131.63 57.3159C1133.8 56.1402 1136.2 55.5418 1138.89 55.5418V51.7253ZM1129.86 53.9311C1126.99 55.3686 1124.76 57.6893 1123.16 60.7728L1126.55 62.5296C1127.83 60.0625 1129.51 58.3743 1131.57 57.3447L1129.86 53.9311ZM1123.18 60.7465C1121.54 63.7782 1120.79 67.5072 1120.79 71.8276H1124.61C1124.61 67.9247 1125.29 64.8694 1126.54 62.5559L1123.18 60.7465ZM1120.79 71.8276V115H1124.61V71.8276H1120.79Z" fill="url(#paint1_linear_1470_5322)" mask="url(#path-1-outside-1_1470_5322)"/>
<defs>
<radialGradient id="paint0_radial_1470_5322" cx="0" cy="0" r="1" gradientUnits="userSpaceOnUse" gradientTransform="translate(615 115) rotate(6.37892) scale(1633.61 807.513)">
<stop stop-color="white"/>
<stop offset="0.95" stop-color="#13FDFD"/>
</radialGradient>
<linearGradient id="paint1_linear_1470_5322" x1="546" y1="99" x2="546" y2="56" gradientUnits="userSpaceOnUse">
<stop stop-color="white" stop-opacity="0"/>
<stop offset="1" stop-color="#139BFD" stop-opacity="0.6"/>
</linearGradient>
</defs>
</svg>
